<?xml version="1.0" standalone="no"?>
<!DOCTYPE svg PUBLIC "-//W3C//DTD SVG 20000303 Stylable//EN"
	"http://www.w3.org/TR/2000/03/WD-SVG-20000303/DTD/svg-20000303-stylable.dtd">
<svg width="50pt" height="50pt" viewBox="0 0 50 50" xml:space="preserve">
<g transform="scale(0.5)">
	<g id="Path_24" style="fill-rule:none;clip-rule:nonzero;fill:none;stroke:#C0C0C0;stroke-miterlimit:4;fill-opacity:50%;">
		<path d="M56.99 8.98999999999999L40.00 0L21.74 9.20999999999999L21.57 27.55L40.00 36.68L57.51 28.64z"/>
	</g>
	<g id="Path_0" style="fill-rule:none;clip-rule:nonzero;fill:none;stroke:#C0C0C0;stroke-miterlimit:4;fill-opacity:50%;">
		<path d="M34.90 15.79L19.62 8.15000000000001"/>
	</g>
	<g id="Path_1" style="fill-rule:none;clip-rule:nonzero;fill:none;stroke:#C0C0C0;stroke-miterlimit:4;fill-opacity:50%;">
		<path d="M34.90 20.89L19.62 28.53"/>
	</g>
	<g id="Path_2" style="fill-rule:none;clip-rule:nonzero;fill:none;stroke:#C0C0C0;stroke-miterlimit:4;fill-opacity:50%;">
		<path d="M40.00 38.72L40.00 23.44"/>
	</g>
	<g id="Path_4" style="fill-rule:none;clip-rule:nonzero;fill:none;stroke:#C0C0C0;stroke-miterlimit:4;fill-opacity:50%;">
		<path d="M40.00 0L40.00 13.24"/>
	</g>
	<g id="Path_6" style="fill-rule:none;clip-rule:nonzero;fill:none;stroke:#C0C0C0;stroke-miterlimit:4;fill-opacity:50%;">
		<path d="M40.00 23.44L45.10 20.89L45.10 15.79L40.00 13.24L34.90 15.79L34.90 20.89z"/>
	</g>
	<g id="Path_7" style="fill-rule:none;clip-rule:nonzero;fill:none;stroke:#C0C0C0;stroke-miterlimit:4;fill-opacity:50%;">
		<path d="M40.00 29.95L51.69 24.12L51.69 12.43L40.00 6.58L28.31 12.43L28.31 24.12z"/>
	</g>
	<g id="Path_5" style="fill-rule:none;clip-rule:nonzero;fill:none;stroke:#C0C0C0;stroke-miterlimit:4;fill-opacity:50%;">
		<path d="M85.08 11.15L68.43 19.46"/>
	</g>
	<g id="Path_7" style="fill-rule:none;clip-rule:nonzero;fill:#3862b4;stroke:#000000;stroke-miterlimit:4;fill-opacity:50%;">
		<path d="M62.03 48.27L52.32 40.48L49.06 25.33L52.32 11.04L62.32 2.93000000000001L74.41 -0.019999999999996L86.76 3.53L96.49 11.04L100.00 25L96.49 40.48L86.76 48.58L74.41 51.51z"/>
	</g>
	<g id="Path_13" style="fill-rule:nonzero;clip-rule:nonzero;fill:#f8fcf8;stroke:none;stroke-miterlimit:4;fill-opacity:50%;">
		<path d="M62.32 2.93000000000001L74.41 -0.019999999999996L86.76 3.53L73.95 6.73999999999999z"/>
	</g>
	<g id="Path_14" style="fill-rule:nonzero;clip-rule:nonzero;fill:#b4b660;stroke:none;stroke-miterlimit:4;fill-opacity:50%;">
		<path d="M58.57 5.98L52.32 11.04L49.06 25.33L50.71 33.05L52.82 28.52L56.94 30.23L60.35 32.3L62.70 27.51L65.77 24.12L66.46 20.36L61.34 19.18L56.94 17.3L56.94 13.56L61.34 10.65z"/>
	</g>
	<g id="Path_15" style="fill-rule:nonzero;clip-rule:nonzero;fill:#b4b660;stroke:none;stroke-miterlimit:4;fill-opacity:50%;">
		<path d="M63.39 35.69L64.08 43.18L62.03 48.27L52.32 40.48L50.71 33.05z"/>
	</g>
	<g id="Path_16" style="fill-rule:nonzero;clip-rule:nonzero;fill:#b4b660;stroke:none;stroke-miterlimit:4;fill-opacity:50%;">
		<path d="M71.55 12.87L76.00 10.15L78.37 15.59L74.29 19.69z"/>
	</g>
	<g id="Path_17" style="fill-rule:nonzero;clip-rule:nonzero;fill:#b4b660;stroke:none;stroke-miterlimit:4;fill-opacity:50%;">
		<path d="M92.78 8.16L96.49 11.04L100.00 25L99.14 28.87L93.03 27.51L90.29 26.84L89.27 30.23L87.22 27.51L83.49 29.56L83.49 29.56L81.09 27.18L81.78 23.43L83.49 21.03L87.22 21.03L89.27 18.31L87.89 15.94L84.85 15.94L83.81 11.84z"/>
	</g>
	<g id="Path_18" style="fill-rule:nonzero;clip-rule:nonzero;fill:#b4b660;stroke:none;stroke-miterlimit:4;fill-opacity:50%;">
		<path d="M84.85 32.62L89.62 33.64L98.68 30.84L96.49 40.48L86.76 48.58L82.86 49.5L84.50 46.24L80.75 44.86L78.37 39.77L81.78 33.64z"/>
	</g>
	<g id="Path_7" style="fill-rule:none;clip-rule:nonzero;fill:none;stroke:#000000;stroke-miterlimit:4;fill-opacity:100%;">
		<path d="M62.03 48.27L52.32 40.48L49.06 25.33L52.32 11.04L62.32 2.93000000000001L74.41 -0.019999999999996L86.76 3.53L96.49 11.04L100.00 25L96.49 40.48L86.76 48.58L74.41 51.51z"/>
	</g>
	<g id="Path_1" style="fill-rule:none;clip-rule:nonzero;fill:#FFFFFF;stroke:#000000;stroke-miterlimit:4;fill-opacity:100%;">
		<path d="M50.77 25.65L50.82 22.51L51.86 21.2L55.46 21.34L62.08 24.19L66.87 27.89L70.99 33.81L73.35 40.1L73.40 42.8L72.13 44.03L69.14 44.39L63.10 42.13L57.28 37.68L52.92 32.01z"/>
	</g>
	<g id="Path_1" style="fill-rule:none;clip-rule:nonzero;fill:none;stroke:#000000;stroke-miterlimit:4;fill-opacity:100%;">
		<path d="M61.88 32.99L68.15 43.73L68.15 46.67L63.97 51.04L59.28 52.19L50.00 50L43.08 44.59L40.08 37.59L41.48 36.79L47.88 36.79L56.88 40.79L65.00 52.5L65.00 52.5L63.36 58.34L60.81 61.57L56.24 64L48.20 63.44L42.03 61.47L37.41 57.83L33.91 54.05L34.75 51.95L40.07 50.97L49.74 51.95L58.29 56.71L62.53 65.48L62.33 68.28L60.02 70.95L54.33 73.88L46.73 76.45L36.29 78.25L33.93 77.13L31.70 74.92L31.49 73.26L37.44 69.05L46.73 67.12L53.66 68.36L60.02 70.95L61.99 72.78L61.99 74.56L60.18 76.95L54.36 79.72L47.11 80.81L40.00 80L33.93 77.13L31.70 74.92"/>
	</g>
	<g id="Path_24" style="fill-rule:none;clip-rule:nonzero;fill:none;stroke:#f8fcf8;stroke-miterlimit:4;fill-opacity:100%;">
		<path d="M45.00 2.64L40.00 0L21.74 9.20999999999999L21.70 13.99"/>
	</g>
	<g id="Path_0" style="fill-rule:none;clip-rule:nonzero;fill:none;stroke:#f8fcf8;stroke-miterlimit:4;fill-opacity:100%;">
		<path d="M26.68 11.68L19.62 8.15000000000001"/>
	</g>
	<g id="Path_4" style="fill-rule:none;clip-rule:nonzero;fill:none;stroke:#f8fcf8;stroke-miterlimit:4;fill-opacity:100%;">
		<path d="M40.00 0L40.00 4.84"/>
	</g>
	<g id="Path_4" style="fill-rule:none;clip-rule:nonzero;fill:none;stroke:#f8fcf8;stroke-miterlimit:4;fill-opacity:100%;">
		<path d="M49.90 5.23999999999999L55.33 8.11"/>
	</g>
</g>
</svg>