<?xml version="1.0" standalone="no"?>
<!DOCTYPE svg PUBLIC "-//W3C//DTD SVG 20000303 Stylable//EN"
	"http://www.w3.org/TR/2000/03/WD-SVG-20000303/DTD/svg-20000303-stylable.dtd">
<svg width="50pt" height="50pt" viewBox="0 0 50 50" xml:space="preserve">
<g transform="scale(0.5)">
	<g id="Section 4" style="fill-rule:none;clip-rule:nonzero;fill:#C0C0C0;stroke:#000000;stroke-miterlimit:4;fill-opacity:50%;">
		<path d="M64.92 84.18L70.68 79.32L75.54 75.68L78.73 76.59L82.52 78.11L85.86 80.54L89.66 83.88L67.80 86.61L66.74 84.94z"/>
	</g>
	<g id="Path_0" style="fill-rule:nonzero;clip-rule:nonzero;fill:#C0C0C0;stroke:none;stroke-miterlimit:4;fill-opacity:50%;">
		<path d="M19.49 77.49L15.41 83.28L15.41 87.79L21.84 94.22L31.07 98.5L45.00 100L61.09 98.08L72.66 92.93L77.38 87.79L76.09 82.21L69.23 75.99L61.72 72.78L52.05 70.88L42.18 70.88L32.14 72.34L25.70 74.27z"/>
	</g>
	<g id="Section 3 Shadow Right Side" style="fill-rule:none;clip-rule:nonzero;fill:#a8a8a8;stroke:#000000;stroke-miterlimit:4;fill-opacity:50%;">
		<path d="M49.33 37.24L56.46 28.43L56.46 50.12L50.69 59.68L49.33 58.92z"/>
	</g>
	<g id="Dark Shadow in Center of Disk" style="fill-rule:none;clip-rule:nonzero;fill:#C0C0C0;stroke:#000000;stroke-miterlimit:4;fill-opacity:50%;">
		<path d="M40.37 43.61L38.55 42.4L38.25 41.03L39.00 39.82L39.92 38.76L41.13 38L43.25 37.39L45.53 37.09L47.66 37.09L49.33 37.24L52.51 38.76L53.58 40.43L53.58 41.79L52.82 42.4L51.91 42.85L51.91 82.79L40.37 82.79z"/>
	</g>
	<g id="Section 2 Shadow" style="fill-rule:none;clip-rule:nonzero;fill:#a8a8a8;stroke:#000000;stroke-miterlimit:4;fill-opacity:50%;">
		<path d="M39.00 39.82L38.25 41.03L16.39 43.76L16.39 37.84z"/>
	</g>
	<g id="Section 2" style="fill-rule:none;clip-rule:nonzero;fill:#FFFFFF;stroke:#000000;stroke-miterlimit:4;fill-opacity:100%;">
		<path d="M39.00 39.82L16.39 37.84L18.67 35.11L21.85 32.99L26.56 30.71L31.72 29.19L36.58 33.75L36.58 33.75L41.13 38L39.92 38.76z"/>
	</g>
	<g id="Section 3 Shadow Left Side" style="fill-rule:none;clip-rule:nonzero;fill:#a8a8a8;stroke:#000000;stroke-miterlimit:4;fill-opacity:100%;">
		<path d="M43.25 37.39L41.13 38L36.58 33.75L36.58 28.43z"/>
	</g>
	<g id="Section 4 Shadow" style="fill-rule:none;clip-rule:nonzero;fill:#a8a8a8;stroke:#000000;stroke-miterlimit:4;fill-opacity:100%;">
		<path d="M66.59 21.99L88.44 19.26L88.44 49.62L66.59 52.35L65.20 51.27L63.70 50.18L63.70 19.57L65.52 20.32z"/>
	</g>
	<g id="Section 4 Lines" style="fill-rule:none;clip-rule:nonzero;fill:none;stroke:#000000;stroke-miterlimit:4;fill-opacity:100%;">
		<path d="M66.59 26.33L88.44 23.6"/>
	</g>
	<g id="Path_13" style="fill-rule:none;clip-rule:nonzero;fill:none;stroke:#000000;stroke-miterlimit:4;fill-opacity:100%;">
		<path d="M66.59 30.67L78.29 29.3"/>
	</g>
	<g id="Path_14" style="fill-rule:none;clip-rule:nonzero;fill:none;stroke:#000000;stroke-miterlimit:4;fill-opacity:100%;">
		<path d="M66.59 35L76.30 34.09"/>
	</g>
	<g id="Section 5 " style="fill-rule:none;clip-rule:nonzero;fill:#FFFFFF;stroke:#000000;stroke-miterlimit:4;fill-opacity:100%;">
		<path d="M51.91 42.85L52.82 42.4L53.58 41.79L75.43 44.52L77.10 44.68L77.10 72.45L75.89 75.49L73.61 78.83L70.58 81.86L66.93 83.68L62.99 85.81L62.99 53.78z"/>
	</g>
	<g id="Section 5 Shadow" style="fill-rule:none;clip-rule:nonzero;fill:#a8a8a8;stroke:#000000;stroke-miterlimit:4;fill-opacity:100%;">
		<path d="M51.91 42.85L62.99 53.63L62.99 85.5L51.91 73.67z"/>
	</g>
	<g id="Path_23" style="fill-rule:none;clip-rule:nonzero;fill:none;stroke:#000000;stroke-miterlimit:4;fill-opacity:100%;">
		<path d="M26.56 77L23.52 75.94L20.49 75.03"/>
	</g>
	<g id="Path_24" style="fill-rule:none;clip-rule:nonzero;fill:none;stroke:#000000;stroke-miterlimit:4;fill-opacity:100%;">
		<path d="M26.56 81.56L24.28 80.65L21.55 79.28"/>
	</g>
	<g id="Path_30" style="fill-rule:none;clip-rule:nonzero;fill:none;stroke:#000000;stroke-miterlimit:4;fill-opacity:100%;">
		<path d="M34.45 78.37L37.64 79.43L41.43 79.74L46.59 80.19L51.15 79.59"/>
	</g>
	<g id="Path_31" style="fill-rule:none;clip-rule:nonzero;fill:none;stroke:#000000;stroke-miterlimit:4;fill-opacity:100%;">
		<path d="M34.45 82.77L37.49 83.68L42.19 84.29L45.38 84.29"/>
	</g>
	<g id="Path_32" style="fill-rule:none;clip-rule:nonzero;fill:none;stroke:#000000;stroke-miterlimit:4;fill-opacity:100%;">
		<path d="M62.99 54.09L66.17 53.02L69.06 51.81L71.79 50.14"/>
	</g>
	<g id="Path_33" style="fill-rule:none;clip-rule:nonzero;fill:none;stroke:#000000;stroke-miterlimit:4;fill-opacity:100%;">
		<path d="M62.99 59.85L67.08 58.64L71.33 56.51L75.58 53.78"/>
	</g>
	<g id="Path_34" style="fill-rule:none;clip-rule:nonzero;fill:none;stroke:#000000;stroke-miterlimit:4;fill-opacity:100%;">
		<path d="M62.99 73.51L65.72 72.75L69.21 70.78"/>
	</g>
	<g id="Section 1 " style="fill-rule:none;clip-rule:nonzero;fill:#FFFFFF;stroke:#000000;stroke-miterlimit:4;fill-opacity:100%;">
		<path d="M40.37 43.61L26.56 53.78L26.56 85.66L21.55 83.99L18.21 81.41L16.24 78.22L14.87 75.34L14.87 72.3L14.87 44.37L16.39 43.76L38.25 41.03L38.55 42.4z"/>
	</g>
	<g id="Disk Platter Lines" style="fill-rule:none;clip-rule:nonzero;fill:none;stroke:#000000;stroke-miterlimit:4;fill-opacity:100%;">
		<path d="M26.56 54.09L23.52 53.02L20.79 50.75"/>
	</g>
	<g id="Path_20" style="fill-rule:none;clip-rule:nonzero;fill:none;stroke:#000000;stroke-miterlimit:4;fill-opacity:100%;">
		<path d="M26.56 63.19L24.28 62.59L21.25 61.22"/>
	</g>
	<g id="Path_22" style="fill-rule:none;clip-rule:nonzero;fill:none;stroke:#000000;stroke-miterlimit:4;fill-opacity:100%;">
		<path d="M26.56 72.15L23.37 71.39"/>
	</g>
	<g id="Path_21" style="fill-rule:none;clip-rule:nonzero;fill:none;stroke:#000000;stroke-miterlimit:4;fill-opacity:100%;">
		<path d="M26.56 67.75L23.37 66.99L19.27 64.86L16.54 63.19"/>
	</g>
	<g id="Path_19" style="fill-rule:none;clip-rule:nonzero;fill:none;stroke:#000000;stroke-miterlimit:4;fill-opacity:100%;">
		<path d="M26.56 58.94L23.83 57.88L21.09 56.21"/>
	</g>
	<g id="Section 1 Shadow" style="fill-rule:none;clip-rule:nonzero;fill:#a8a8a8;stroke:#000000;stroke-miterlimit:4;fill-opacity:100%;">
		<path d="M40.37 43.61L40.37 73.82L26.56 85.66L26.56 53.78z"/>
	</g>
	<g id="Section 6" style="fill-rule:none;clip-rule:nonzero;fill:#FFFFFF;stroke:#000000;stroke-miterlimit:4;fill-opacity:100%;">
		<path d="M50.24 43.92L58.74 55.91L58.74 86.87L54.94 88.24L51.15 88.69L46.29 89.3L41.43 88.69L37.64 88.09L34.45 86.87L34.45 55.76L42.04 44.37L44.32 44.83L47.35 44.68z"/>
	</g>
	<g id="Path_25" style="fill-rule:none;clip-rule:nonzero;fill:none;stroke:#000000;stroke-miterlimit:4;fill-opacity:100%;">
		<path d="M34.45 56.06L38.55 56.82L42.65 57.12L47.20 56.97L51.00 56.97L55.40 56.51"/>
	</g>
	<g id="Path_26" style="fill-rule:none;clip-rule:nonzero;fill:none;stroke:#000000;stroke-miterlimit:4;fill-opacity:100%;">
		<path d="M34.45 60.31L37.94 60.92L42.04 61.37L46.90 61.52L52.36 60.92"/>
	</g>
	<g id="Path_27" style="fill-rule:none;clip-rule:nonzero;fill:none;stroke:#000000;stroke-miterlimit:4;fill-opacity:100%;">
		<path d="M34.45 64.1L37.79 64.71L41.74 65.47L47.20 65.17L52.36 64.86"/>
	</g>
	<g id="Path_28" style="fill-rule:none;clip-rule:nonzero;fill:none;stroke:#000000;stroke-miterlimit:4;fill-opacity:100%;">
		<path d="M34.45 68.96L37.79 69.42L41.13 70.17L45.53 70.48L50.24 70.17"/>
	</g>
	<g id="Path_29" style="fill-rule:none;clip-rule:nonzero;fill:none;stroke:#000000;stroke-miterlimit:4;fill-opacity:100%;">
		<path d="M34.45 73.97L37.49 74.42L41.28 75.18L44.17 75.18L46.90 75.18L50.08 75.18L54.94 74.58"/>
	</g>
	<g id="Section 3" style="fill-rule:none;clip-rule:nonzero;fill:#FFFFFF;stroke:#000000;stroke-miterlimit:4;fill-opacity:100%;">
		<path d="M43.25 37.39L36.58 28.43L40.67 26.92L45.08 26.61L49.63 26.61L52.36 26.92L56.46 28.43L49.33 37.24L47.66 37.09L45.53 37.09z"/>
	</g>
	<g id="Path_33" style="fill-rule:none;clip-rule:nonzero;fill:none;stroke:#000000;stroke-miterlimit:4;fill-opacity:100%;">
		<path d="M66.48 43.41L66.59 21.99"/>
	</g>
	<g id="Section 4" style="fill-rule:none;clip-rule:nonzero;fill:#FFFFFF;stroke:#000000;stroke-miterlimit:4;fill-opacity:100%;">
		<path d="M63.70 19.57L69.47 14.71L74.33 11.07L77.51 11.98L81.31 13.49L84.65 15.92L88.44 19.26L66.59 21.99L65.52 20.32z"/>
	</g>
</g>
</svg>