<?xml version="1.0" standalone="no"?>
<!DOCTYPE svg PUBLIC "-//W3C//DTD SVG 20000303 Stylable//EN"
	"http://www.w3.org/TR/2000/03/WD-SVG-20000303/DTD/svg-20000303-stylable.dtd">
<svg width="50pt" height="50pt" viewBox="0 0 50 50" xml:space="preserve">
<g transform="scale(0.5)">
	<g id="Path_0" style="fill-rule:nonzero;clip-rule:nonzero;fill:#dcb638;stroke:none;stroke-miterlimit:4;">
		<path d="M56.31 24.86L60.00 22L62.18 18.42L49.31 26.44z"/>
	</g>
	<g id="Path_1" style="fill-rule:nonzero;clip-rule:nonzero;fill:#dcb638;stroke:none;stroke-miterlimit:4;">
		<path d="M47.39 22.09L57.43 16.67L62.18 18.42L49.34 26.44z"/>
	</g>
	<g id="Path_2" style="fill-rule:nonzero;clip-rule:nonzero;fill:#dcb638;stroke:none;stroke-miterlimit:4;">
		<path d="M44.20 16.44L45.81 10.84L48.61 7.43000000000001L52.06 5.09L53.82 5.23999999999999L51.24 13.7L45.80 20.45z"/>
	</g>
	<g id="Path_3" style="fill-rule:nonzero;clip-rule:nonzero;fill:#dcb638;stroke:none;stroke-miterlimit:4;">
		<path d="M45.80 20.22L51.24 13.7L57.37 16.75L47.54 22.04z"/>
	</g>
	<g id="Path_4" style="fill-rule:nonzero;clip-rule:nonzero;fill:#dcb638;stroke:none;stroke-miterlimit:4;">
		<path d="M57.43 16.67L60.00 8L62.00 11L62.00 15L61.81 18.98z"/>
	</g>
	<g id="Path_33" style="fill-rule:nonzero;clip-rule:nonzero;fill:#dcb638;stroke:none;stroke-miterlimit:4;">
		<path d="M48.00 70L44.00 80L42.00 77L41.89 74.6L42.14 71.66L42.78 68.73L43.32 67.92z"/>
	</g>
	<g id="Path_33" style="fill-rule:nonzero;clip-rule:nonzero;fill:#dcb638;stroke:none;stroke-miterlimit:4;">
		<path d="M56.29 62.27L59.96 66.13L55.17 73.68L48.00 70L42.78 68.73L44.96 65.65L49.36 61.68z"/>
	</g>
	<g id="Path_33" style="fill-rule:nonzero;clip-rule:nonzero;fill:#dcb638;stroke:none;stroke-miterlimit:4;">
		<path d="M59.96 66.13L62.00 71L61.27 77.3L58.20 81.05L52.47 83.48L51.46 83.28L55.17 73.68z"/>
	</g>
	<g id="Path_39" style="fill-rule:none;clip-rule:nonzero;fill:none;stroke:#f80000;stroke-miterlimit:4;">
		<path d="M52.50 51.25L30.00 40.02"/>
	</g>
	<g id="Path_40" style="fill-rule:none;clip-rule:nonzero;fill:none;stroke:#f80000;stroke-miterlimit:4;">
		<path d="M76.10 39.45L52.50 51.25"/>
	</g>
	<g id="Path_0" style="fill-rule:none;clip-rule:nonzero;fill:none;stroke:#f80000;stroke-miterlimit:4;">
		<path d="M52.50 56.25L67.50 63.52"/>
	</g>
	<g id="Path_1" style="fill-rule:none;clip-rule:nonzero;fill:none;stroke:#f80000;stroke-miterlimit:4;">
		<path d="M52.50 56.25L37.61 63.65"/>
	</g>
	<g id="Path_22" style="fill-rule:nonzero;clip-rule:nonzero;fill:#dcb638;stroke:none;stroke-miterlimit:4;">
		<path d="M56.42 24.65L56.36 63.11L49.25 62.51L49.31 26.44z"/>
	</g>
	<g id="Path_29" style="fill-rule:none;clip-rule:nonzero;fill:none;stroke:#f8fcf8;stroke-miterlimit:4;">
		<path d="M51.68 60.07L51.64 25"/>
	</g>
	<g id="Path_33" style="fill-rule:none;clip-rule:nonzero;fill:none;stroke:#000000;stroke-miterlimit:4;fill-opacity:100%;">
		<path d="M45.76 20.35L44.20 16.44L45.77 10.97L48.51 7.65000000000001L52.02 5.22L53.78 5.37L51.20 13.83L57.33 16.88L59.96 8.13L62.00 11L62.00 15L61.81 18.98L59.96 22.13L56.31 24.86L56.25 62.4L59.96 66.13L61.96 71.13L61.23 77.43L58.16 81.18L52.43 83.61L51.46 83.28L55.17 73.68L47.96 70.13L43.96 80.13L42.00 77L41.85 74.82L42.12 71.59L42.72 69.09L44.92 65.78L49.32 61.81L49.27 26.57L47.50 22.17z"/>
	</g>
	<g id="Path_17" style="fill-rule:none;clip-rule:nonzero;fill:#007ef8;stroke:#000000;stroke-miterlimit:4;fill-opacity:100%;">
		<path d="M15.00 32.5L15.00 45L22.50 48.75L22.50 36.25z"/>
	</g>
	<g id="Path_18" style="fill-rule:none;clip-rule:nonzero;fill:#3862b4;stroke:#000000;stroke-miterlimit:4;fill-opacity:100%;">
		<path d="M22.50 36.25L22.50 48.75L30.00 45L30.00 32.5z"/>
	</g>
	<g id="Path_19" style="fill-rule:none;clip-rule:nonzero;fill:#FFFFFF;stroke:#000000;stroke-miterlimit:4;fill-opacity:100%;">
		<path d="M22.50 28.75L14.89 32.45L22.50 36.25L30.00 32.5z"/>
	</g>
	<g id="Path_17" style="fill-rule:none;clip-rule:nonzero;fill:#007ef8;stroke:#000000;stroke-miterlimit:4;fill-opacity:100%;">
		<path d="M22.61 56.3L22.61 68.8L30.11 72.55L30.11 60.05z"/>
	</g>
	<g id="Path_18" style="fill-rule:none;clip-rule:nonzero;fill:#3862b4;stroke:#000000;stroke-miterlimit:4;fill-opacity:100%;">
		<path d="M30.11 60.05L30.11 72.55L37.61 68.8L37.61 56.3z"/>
	</g>
	<g id="Path_19" style="fill-rule:none;clip-rule:nonzero;fill:#FFFFFF;stroke:#000000;stroke-miterlimit:4;fill-opacity:100%;">
		<path d="M30.11 52.55L22.50 56.25L30.11 60.05L37.61 56.3z"/>
	</g>
	<g id="Path_17" style="fill-rule:none;clip-rule:nonzero;fill:#007ef8;stroke:#000000;stroke-miterlimit:4;fill-opacity:100%;">
		<path d="M75.00 32.5L75.00 45L82.50 48.75L82.50 36.25z"/>
	</g>
	<g id="Path_18" style="fill-rule:none;clip-rule:nonzero;fill:#3862b4;stroke:#000000;stroke-miterlimit:4;fill-opacity:100%;">
		<path d="M82.50 36.25L82.50 48.75L90.00 45L90.00 32.5z"/>
	</g>
	<g id="Path_19" style="fill-rule:none;clip-rule:nonzero;fill:#FFFFFF;stroke:#000000;stroke-miterlimit:4;fill-opacity:100%;">
		<path d="M82.50 28.75L74.89 32.45L82.50 36.25L90.00 32.5z"/>
	</g>
	<g id="Path_17" style="fill-rule:none;clip-rule:nonzero;fill:#007ef8;stroke:#000000;stroke-miterlimit:4;fill-opacity:100%;">
		<path d="M67.50 56.25L67.50 68.75L75.00 72.5L75.00 60z"/>
	</g>
	<g id="Path_18" style="fill-rule:none;clip-rule:nonzero;fill:#3862b4;stroke:#000000;stroke-miterlimit:4;fill-opacity:100%;">
		<path d="M75.00 60L75.00 72.5L82.50 68.75L82.50 56.25z"/>
	</g>
	<g id="Path_19" style="fill-rule:none;clip-rule:nonzero;fill:#FFFFFF;stroke:#000000;stroke-miterlimit:4;fill-opacity:100%;">
		<path d="M75.00 52.5L67.39 56.2L75.00 60L82.50 56.25z"/>
	</g>
	<g id="Path_27" style="fill-rule:none;clip-rule:nonzero;fill:none;stroke:#f8fcf8;stroke-miterlimit:4;fill-opacity:100%;">
		<path d="M48.00 66L50.36 63.95L54.69 64.43L59.38 69.08"/>
	</g>
	<g id="Path_28" style="fill-rule:none;clip-rule:nonzero;fill:none;stroke:#f8fcf8;stroke-miterlimit:4;fill-opacity:100%;">
		<path d="M46.43 16.05L47.12 18.81L48.84 21.34L50.87 22.64L55.43 22.64"/>
	</g>
</g>
</svg>