<?xml version="1.0" standalone="no"?>
<!DOCTYPE svg PUBLIC "-//W3C//DTD SVG 20000303 Stylable//EN"
	"http://www.w3.org/TR/2000/03/WD-SVG-20000303/DTD/svg-20000303-stylable.dtd">
<svg width="50pt" height="50pt" viewBox="0 0 50 50" xml:space="preserve">
<g transform="scale(0.5)">
	<g id="Path_0" style="fill-rule:nonzero;clip-rule:nonzero;fill:#f87e00;stroke:none;stroke-miterlimit:4;">
		<path d="M55.31 17.54L57.19 16.86L59.28 16.01L61.38 15.77L63.26 15.64L65.14 15.79L66.82 16.35L68.48 17.17L69.94 18.42L71.41 19.68L72.66 21.32L73.70 23.06L74.55 25.21L75.16 27.48L75.80 30L76.01 32.78L76.21 35.26L76.01 37.94L75.80 40.96L75.16 44.17L74.55 47.11L73.70 50.14L72.66 52.99L71.41 55.96L69.94 58.76L68.48 61.54L66.82 64.16L65.14 66.49L63.26 68.64L61.38 70.49L59.28 72.46L57.19 73.87L55.31 75.16L53.44 75.85L51.34 76.68L49.24 76.94L47.37 77.08L45.48 76.9L43.82 76.34L42.15 75.52L40.67 74.27L39.23 73.02L37.96 71.39L36.91 69.64L36.08 67.51L35.45 65.23L34.83 62.69L34.62 59.92L34.41 57.44L34.62 54.75L34.83 51.74L35.45 48.53L36.08 45.6L36.91 42.56L37.96 39.71L39.23 36.73L40.67 33.95L42.15 31.15L43.82 28.54L45.48 26.21L47.37 24.08L49.24 22.21L51.34 20.23L53.44 18.83L55.31 17.54z"/>
	</g>
	<g id="Path_3" style="fill-rule:nonzero;clip-rule:nonzero;fill:#f87e00;stroke:none;stroke-miterlimit:4;">
		<path d="M67.59 17.03L56.10 24.05L44.59 15.88L43.40 12.21L44.45 8.04000000000001L47.16 4.95L50.60 4.88z"/>
	</g>
	<g id="Path_4" style="fill-rule:nonzero;clip-rule:nonzero;fill:#f87e00;stroke:none;stroke-miterlimit:4;">
		<path d="M51.28 20.63L27.83 33.12L25.31 36.58L24.50 40.57L25.40 44.12L28.14 44.43L48.11 34.03L51.30 24.8z"/>
	</g>
	<g id="Path_5" style="fill-rule:nonzero;clip-rule:nonzero;fill:#f87e00;stroke:none;stroke-miterlimit:4;">
		<path d="M38.39 39.43L20.17 68.66L19.42 72.68L20.73 75.78L23.02 76.61L25.67 74.93L43.22 47.2z"/>
	</g>
	<g id="Path_2" style="fill-rule:nonzero;clip-rule:nonzero;fill:#f8fcf8;stroke:none;stroke-miterlimit:4;">
		<path d="M55.63 65.12L56.89 64.24L58.24 63.33L59.64 62.05L60.87 60.82L62.12 59.39L63.23 57.86L64.34 56.1L65.32 54.27L66.26 52.42L67.10 50.48L67.79 48.58L68.33 46.58L68.76 44.66L69.16 42.52L69.31 40.54L69.44 38.76L69.31 37.11L69.16 35.3L68.76 33.63L68.33 32.12L67.79 30.69L67.10 29.56L66.26 28.47L65.32 27.63L64.34 26.82L63.23 26.28L62.12 25.91L60.87 25.83L59.64 25.89L58.24 26.06L56.89 26.6L55.63 27.07L54.38 27.94L53.01 28.84L51.64 30.14L50.38 31.38L49.15 32.77L48.04 34.33L46.93 36.06L45.97 37.88L45.00 39.75L44.18 41.72L43.50 43.57L42.93 45.59L42.51 47.54L42.10 49.64L41.97 51.62L41.82 53.4L41.97 55.04L42.10 56.87L42.51 58.58L42.93 60.04L43.50 61.46L44.18 62.64L45.00 63.69L45.97 64.52L46.93 65.32L48.04 65.91L49.15 66.26L50.38 66.36L51.64 66.29L53.01 66.11L54.38 65.59L55.63 65.12z"/>
	</g>
	<g id="Path_2" style="fill-rule:nonzero;clip-rule:nonzero;fill:#282aa4;stroke:none;stroke-miterlimit:4;">
		<path d="M55.87 58.98L56.72 58.39L57.64 57.77L58.59 56.88L59.43 56.05L60.27 55.09L61.02 54.05L61.77 52.86L62.44 51.63L63.08 50.38L63.63 49.07L64.12 47.78L64.47 46.42L64.75 45.11L65.06 43.67L65.14 42.33L65.24 41.11L65.14 40.02L65.06 38.77L64.75 37.65L64.47 36.63L64.12 35.66L63.63 34.89L63.08 34.14L62.44 33.58L61.77 33.03L61.02 32.66L60.27 32.41L59.43 32.35L58.59 32.4L57.64 32.5L56.72 32.88L55.87 33.2L55.03 33.78L54.09 34.39L53.17 35.26L52.33 36.11L51.48 37.08L50.75 38.12L49.98 39.28L49.33 40.53L48.68 41.78L48.11 43.12L47.64 44.39L47.28 45.76L46.99 47.07L46.71 48.48L46.62 49.82L46.52 51.04L46.62 52.15L46.71 53.39L46.99 54.54L47.28 55.55L47.64 56.51L48.11 57.31L48.68 58.01L49.33 58.57L49.98 59.12L50.75 59.52L51.48 59.76L52.33 59.82L53.17 59.76L54.09 59.64L55.03 59.28L55.87 58.98z"/>
	</g>
</g>
</svg>