<?xml version="1.0" standalone="no"?>
<!DOCTYPE svg PUBLIC "-//W3C//DTD SVG 20000303 Stylable//EN"
	"http://www.w3.org/TR/2000/03/WD-SVG-20000303/DTD/svg-20000303-stylable.dtd">
<svg width="50pt" height="50pt" viewBox="0 0 50 50" xml:space="preserve">
<g transform="scale(0.5)">
	<g id="Icon Shadow" style="fill-rule:nonzero;clip-rule:nonzero;fill:#C0C0C0;stroke:none;stroke-miterlimit:4;fill-opacity:50%;">
		<path d="M45.00 100L10.00 82.5L45.00 65L80.00 82.5z"/>
	</g>
	<g id="Right Safe Leg" style="fill-rule:nonzero;clip-rule:nonzero;fill:#FFFFFF;stroke:none;stroke-miterlimit:4;fill-opacity:100%;">
		<path d="M74.30 74.7L74.10 73L73.00 71.7L71.20 71.4L80.00 67L80.00 72.3z"/>
	</g>
	<g id="Left Safe Leg" style="fill-rule:nonzero;clip-rule:nonzero;fill:#FFFFFF;stroke:none;stroke-miterlimit:4;fill-opacity:100%;">
		<path d="M10.00 72.3L10.00 67L18.30 71.15L15.80 72L14.80 73.2L14.40 74.9z"/>
	</g>
	<g id="Main Body of Safe" style="fill-rule:nonzero;clip-rule:nonzero;fill:#FFFFFF;stroke:none;stroke-miterlimit:4;fill-opacity:100%;">
		<path d="M10.00 67L10.00 27.5L45.00 10L80.00 27.5L80.00 67L71.20 71.4L51.60 81.2L45.00 84.5L36.30 80.15L18.30 71.15z"/>
	</g>
	<g id="Path_4" style="fill-rule:none;clip-rule:nonzero;fill:none;stroke:#000000;stroke-miterlimit:4;fill-opacity:100%;">
		<path d="M45.00 45L10.00 27.5"/>
	</g>
	<g id="Path_5" style="fill-rule:none;clip-rule:nonzero;fill:none;stroke:#000000;stroke-miterlimit:4;fill-opacity:100%;">
		<path d="M45.00 45L80.00 27.5"/>
	</g>
	<g id="Middle Safe Leg" style="fill-rule:nonzero;clip-rule:nonzero;fill:#FFFFFF;stroke:none;stroke-miterlimit:4;fill-opacity:100%;">
		<path d="M39.40 87.2L39.40 85.6L38.40 83.2L36.30 80.15L45.00 84.5L51.60 81.2L50.30 83L49.40 85L49.30 87.4L45.00 90z"/>
	</g>
	<g id="Safe Outlines" style="fill-rule:none;clip-rule:nonzero;fill:none;stroke:#000000;stroke-miterlimit:4;fill-opacity:100%;">
		<path d="M45.00 90L45.00 70"/>
	</g>
	<g id="Path_8" style="fill-rule:none;clip-rule:nonzero;fill:none;stroke:#000000;stroke-miterlimit:4;fill-opacity:100%;">
		<path d="M45.00 50L45.00 45"/>
	</g>
	<g id="Path_9" style="fill-rule:none;clip-rule:nonzero;fill:none;stroke:#000000;stroke-miterlimit:4;fill-opacity:100%;">
		<path d="M80.00 67L80.00 72.3L74.30 74.7L74.10 73L73.00 71.7L71.20 71.4L71.20 71.4L51.60 81.2L50.30 83L49.40 85L49.30 87.4L45.00 90L39.40 87.2L39.40 85.6L38.40 83.2L36.30 80.15L18.30 71.15L15.80 72L14.80 73.2L14.40 74.9L10.00 72.3L10.00 67L10.00 27.5L45.00 10L80.00 27.5z"/>
	</g>
	<g id="Safe Door - Opened" style="fill-rule:none;clip-rule:nonzero;fill:#FFFFFF;stroke:#000000;stroke-miterlimit:4;fill-opacity:100%;">
		<path d="M74.00 62L74.00 37.7L99.00 49.5L99.00 74z"/>
	</g>
	<g id="Safe Door Outlines" style="fill-rule:none;clip-rule:nonzero;fill:#FFFFFF;stroke:#000000;stroke-miterlimit:4;fill-opacity:100%;">
		<path d="M93.00 69.5L77.00 61.2L77.00 44L93.00 51.9z"/>
	</g>
	<g id="Path_2" style="fill-rule:none;clip-rule:nonzero;fill:none;stroke:#000000;stroke-miterlimit:4;fill-opacity:100%;">
		<path d="M99.00 74L93.00 69.5"/>
	</g>
	<g id="Path_3" style="fill-rule:none;clip-rule:nonzero;fill:none;stroke:#000000;stroke-miterlimit:4;fill-opacity:100%;">
		<path d="M74.00 62L77.00 61.5"/>
	</g>
	<g id="Path_4" style="fill-rule:none;clip-rule:nonzero;fill:none;stroke:#000000;stroke-miterlimit:4;fill-opacity:100%;">
		<path d="M74.00 37.7L77.00 44"/>
	</g>
	<g id="Path_5" style="fill-rule:none;clip-rule:nonzero;fill:none;stroke:#000000;stroke-miterlimit:4;fill-opacity:100%;">
		<path d="M99.00 49.5L93.00 51.9"/>
	</g>
	<g id="Door Frame Outline" style="fill-rule:none;clip-rule:nonzero;fill:#FFFFFF;stroke:#000000;stroke-miterlimit:4;fill-opacity:100%;">
		<path d="M50.00 74L50.00 49.7L74.00 37.7L74.00 62z"/>
	</g>
	<g id="Inside Line" style="fill-rule:none;clip-rule:nonzero;fill:none;stroke:#000000;stroke-miterlimit:4;fill-opacity:100%;">
		<path d="M65.00 57.5L50.00 50"/>
	</g>
</g>
</svg>