<?xml version="1.0" standalone="no"?>
<!DOCTYPE svg PUBLIC "-//W3C//DTD SVG 20000303 Stylable//EN"
	"http://www.w3.org/TR/2000/03/WD-SVG-20000303/DTD/svg-20000303-stylable.dtd">
<svg width="50pt" height="50pt" viewBox="0 0 50 50" xml:space="preserve">
<g transform="scale(0.5)">
	<g id="Path_0" style="fill-rule:none;clip-rule:nonzero;fill:#000000;stroke:#000000;stroke-miterlimit:4;fill-opacity:100%;">
		<path d="M38.24 25.84L42.07 30.49L27.75 72.25L22.38 70.4z"/>
	</g>
	<g id="Path_1" style="fill-rule:none;clip-rule:nonzero;fill:#000000;stroke:#000000;stroke-miterlimit:4;fill-opacity:100%;">
		<path d="M36.85 23.57L58.04 57.66L64.09 48.8L42.55 16.1z"/>
	</g>
	<g id="Path_2" style="fill-rule:nonzero;clip-rule:nonzero;fill:#f80000;stroke:none;stroke-miterlimit:4;fill-opacity:100%;">
		<path d="M49.78 16.65L64.63 16.68L50.58 23.71z"/>
	</g>
	<g id="Path_3" style="fill-rule:nonzero;clip-rule:nonzero;fill:#f80000;stroke:none;stroke-miterlimit:4;fill-opacity:100%;">
		<path d="M73.90 28.64L74.01 21.37L59.95 28.4z"/>
	</g>
	<g id="Path_4" style="fill-rule:none;clip-rule:nonzero;fill:#f80000;stroke:#f80000;stroke-miterlimit:4;fill-opacity:100%;">
		<path d="M63.91 26.42L69.63 23.56L60.38 18.93L54.66 21.79z"/>
	</g>
	<g id="Path_5" style="fill-rule:none;clip-rule:nonzero;fill:none;stroke:#000000;stroke-miterlimit:4;fill-opacity:100%;">
		<path d="M49.78 16.65L64.63 16.68L60.38 18.93L69.63 23.56L74.01 21.37L73.90 28.64L59.95 28.4L63.91 26.42L54.66 21.79L50.58 23.71z"/>
	</g>
	<g id="Path_6" style="fill-rule:none;clip-rule:nonzero;fill:#000000;stroke:#000000;stroke-miterlimit:4;fill-opacity:100%;">
		<path d="M46.99 38.57L49.38 44.3L32.99 56.68L36.08 47.45z"/>
	</g>
	<g id="Path_7" style="fill-rule:nonzero;clip-rule:nonzero;fill:#00007c;stroke:none;stroke-miterlimit:4;fill-opacity:100%;">
		<path d="M77.43 27.79L78.01 31.57L53.31 80.93L49.85 82.66z"/>
	</g>
	<g id="Path_8" style="fill-rule:nonzero;clip-rule:nonzero;fill:#00007c;stroke:none;stroke-miterlimit:4;fill-opacity:100%;">
		<path d="M77.37 55.8L77.37 59.4L59.35 67.73L60.79 63.49z"/>
	</g>
	<g id="Path_9" style="fill-rule:nonzero;clip-rule:nonzero;fill:#00007c;stroke:none;stroke-miterlimit:4;fill-opacity:100%;">
		<path d="M53.31 80.93L57.34 80.58L46.25 86.12L49.85 82.66z"/>
	</g>
	<g id="Path_10" style="fill-rule:nonzero;clip-rule:nonzero;fill:#00007c;stroke:none;stroke-miterlimit:4;fill-opacity:100%;">
		<path d="M84.12 65.14L87.43 65.52L73.17 72.65L77.35 68.52z"/>
	</g>
	<g id="Path_12" style="fill-rule:nonzero;clip-rule:nonzero;fill:#00007c;stroke:none;stroke-miterlimit:4;fill-opacity:100%;">
		<path d="M77.43 27.79L84.20 24.4L84.12 65.14L77.35 68.52z"/>
	</g>
	<g id="Path_13" style="fill-rule:none;clip-rule:nonzero;fill:none;stroke:#000000;stroke-miterlimit:4;fill-opacity:100%;">
		<path d="M77.28 33.04L77.37 55.8L60.79 63.49z"/>
	</g>
	<g id="Path_11" style="fill-rule:none;clip-rule:nonzero;fill:none;stroke:#000000;stroke-miterlimit:4;fill-opacity:100%;">
		<path d="M49.85 82.66L77.43 27.79L84.20 24.4L84.12 65.14L87.43 65.52L73.17 72.65L77.35 68.52L77.37 59.4L59.35 67.73L53.31 80.93L57.34 80.58L46.25 86.12z"/>
	</g>
</g>
</svg>