<?xml version="1.0" standalone="no"?>
<!DOCTYPE svg PUBLIC "-//W3C//DTD SVG 20000303 Stylable//EN"
	"http://www.w3.org/TR/2000/03/WD-SVG-20000303/DTD/svg-20000303-stylable.dtd">
<svg width="50pt" height="50pt" viewBox="0 0 50 50" xml:space="preserve">
<g transform="scale(0.5)">
	<g id="Path_0" style="fill-rule:none;clip-rule:nonzero;fill:#7c00f8;stroke:#000000;stroke-miterlimit:4;">
		<path d="M66.66 42.11L62.65 31.06L65.51 31.88L68.24 32.56L71.24 33.38L73.70 34.2L75.54 35.09L78.20 36.25L80.79 37.75L82.57 40.2L74.79 47.43L72.81 46L70.97 45.25L69.06 43.75L67.70 42.79L66.45 42.17z"/>
	</g>
	<g id="Path_1" style="fill-rule:none;clip-rule:nonzero;fill:#1c46c0;stroke:#000000;stroke-miterlimit:4;">
		<path d="M54.46 31.06L55.01 40.2L58.01 40.2L60.33 40.34L63.06 41.02L66.67 42.25L66.33 39.52L65.65 37.06L64.63 34.4L63.06 31.74L60.19 31.34L57.06 30.93L54.60 30.93z"/>
	</g>
	<g id="Path_2" style="fill-rule:nonzero;clip-rule:nonzero;fill:#7c007c;stroke:none;stroke-miterlimit:4;">
		<path d="M76.02 46.89L78.61 45.8L81.48 46.21L84.89 47.98L85.98 52.21L82.57 52.48L78.95 51.8L75.20 50.98L72.13 49.75L74.18 48.73L76.29 46.89z"/>
	</g>
	<g id="Path_3" style="fill-rule:none;clip-rule:nonzero;fill:#c01c44;stroke:#000000;stroke-miterlimit:4;">
		<path d="M72.35 49.84L86.11 52.34L84.89 54.8L82.84 57.26L79.57 59.3L76.70 60.67L73.29 62.03L69.33 62.99L65.65 61.49L62.65 59.71L59.51 57.67L56.51 55.89L54.60 52.34L57.81 52.14L61.97 51.8L65.99 50.78L69.88 50.3L72.24 49.79z"/>
	</g>
	<g id="Path_4" style="fill-rule:none;clip-rule:nonzero;fill:#c09a44;stroke:#000000;stroke-miterlimit:4;">
		<path d="M55.56 53.44L58.67 57.17L61.56 59.3L65.39 61.33L69.33 62.99L64.42 64.62L59.65 65.3L54.46 65.85L49.42 65.71L45.05 64.9L42.32 63.12L39.87 61.35L37.96 59.44L36.59 56.71L34.61 54.87L33.18 52.62L32.36 48.93L36.59 50.98L41.91 51.8L47.64 52.34L51.67 52.48L54.80 52.72z"/>
	</g>
	<g id="Path_5" style="fill-rule:none;clip-rule:nonzero;fill:#449a44;stroke:#000000;stroke-miterlimit:4;">
		<path d="M32.09 49.07L33.73 52.21L36.05 55.76L39.18 59.71L45.05 64.9L43.28 64.9L40.41 64.76L36.87 63.53L32.77 62.58L29.09 61.35L25.54 59.85L22.81 58.48L20.77 56.85L18.86 54.8L18.17 52.48L18.24 50.09L19.13 47.71L20.63 45.66L23.22 44.98L25.81 44.84L28.27 45.8L30.04 47.16L32.09 48.8z"/>
	</g>
	<g id="Path_6" style="fill-rule:none;clip-rule:nonzero;fill:#007e7c;stroke:#000000;stroke-miterlimit:4;">
		<path d="M30.18 47.98L18.72 48.12L20.29 41.57L22.13 39.66L24.31 37.88L28.41 35.56L31.27 35.84L33.73 36.66L36.46 38.02L38.50 39.79L39.87 41.57L37.27 42.39L34.68 43.61L31.95 45.52L30.18 47.84z"/>
	</g>
	<g id="Path_7" style="fill-rule:none;clip-rule:nonzero;fill:#007e7c;stroke:#000000;stroke-miterlimit:4;">
		<path d="M39.58 41.66L27.59 35.7L31.41 33.93L34.68 32.84L38.37 31.88L42.12 31.34L45.05 30.93L48.46 31.06L51.60 30.79L51.19 40.48L47.10 40.48L44.51 40.61L42.46 41.02z"/>
	</g>
	<g id="Path_8" style="fill-rule:none;clip-rule:nonzero;fill:#0000f8;stroke:#000000;stroke-miterlimit:4;">
		<path d="M55.69 29.02L55.08 27.58L54.05 26.29L52.55 26.01L51.05 26.56L49.14 28.33L48.46 30.11L48.46 41.84L49.14 44.43L51.33 46.34L53.37 46.75L55.15 45.66L55.69 43.75L55.83 41.16L55.83 30.38z"/>
	</g>
	<g id="Path_9" style="fill-rule:none;clip-rule:nonzero;fill:#f80000;stroke:#000000;stroke-miterlimit:4;">
		<path d="M68.38 50.3L71.45 49.41L73.29 48.66L74.93 47.57L76.93 46.5L79.70 46.34L82.16 47.02L84.07 47.84L85.32 49.65L85.72 52.27L84.89 54.39L83.47 56.5L81.33 58.2L78.75 59.85L76.02 61.21L77.52 62.3L80.38 62.85L83.11 62.85L85.98 62.44L88.57 61.49L90.89 59.85L92.25 58.35L92.80 56.16L92.53 53.57L92.39 51.12L91.57 48.39L90.34 46.21L89.39 44.57L87.62 42.66L85.57 41.02L83.39 39.79L81.07 38.97L78.88 38.97L76.43 39.52L73.84 40.48L71.38 42.11L69.40 43.61L68.38 45.52L67.83 48.12L68.24 50.16z"/>
	</g>
	<g id="Path_10" style="fill-rule:none;clip-rule:nonzero;fill:#00fc00;stroke:#000000;stroke-miterlimit:4;">
		<path d="M29.25 61.4L25.95 59.58L23.50 58.35L21.65 56.57L19.95 54.66L19.68 52.34L19.95 49.89L21.18 47.84L22.68 46.48L25.00 45.8L26.91 45.8L29.16 46.68L30.94 47.88L32.64 49.34L34.82 50.71L36.61 50.98L36.46 49.48L35.98 47.37L34.96 45.8L33.73 43.89L32.09 41.98L30.18 40.88L27.45 39.66L24.18 39.25L21.59 39.66L18.93 40.88L16.40 42.25L14.63 43.89L12.99 46.61L11.76 48.93L11.49 51.25L11.76 54.94L13.26 58.07L14.83 59.98L16.95 62.03L19.27 63.12L21.99 63.26L25.13 62.71L27.72 61.89L29.16 61.69z"/>
	</g>
	<g id="Path_11" style="fill-rule:none;clip-rule:nonzero;fill:#282a28;stroke:#000000;stroke-miterlimit:4;">
		<path d="M25.95 59.58L21.86 56.57L20.49 54.66L19.95 52.21L20.49 49.34L21.31 47.02L19.81 48.52L18.72 51.39L19.13 55.48L21.59 58.48L25.81 59.71z"/>
	</g>
	<g id="Path_12" style="fill-rule:none;clip-rule:nonzero;fill:#000000;stroke:#000000;stroke-miterlimit:4;">
		<path d="M76.42 60.78L79.42 59.42L82.29 58.07L84.75 55.89L85.71 52.75L85.46 50.19L84.35 48.25L84.48 50.98L84.07 53.03L83.39 54.53L81.89 56.71L80.79 57.67L78.61 59.3L76.22 60.67z"/>
	</g>
</g>
</svg>