<?xml version="1.0" standalone="no"?>
<!DOCTYPE svg PUBLIC "-//W3C//DTD SVG 20000303 Stylable//EN"
	"http://www.w3.org/TR/2000/03/WD-SVG-20000303/DTD/svg-20000303-stylable.dtd">
<svg width="50pt" height="50pt" viewBox="0 0 50 50" xml:space="preserve">
<g transform="scale(0.5)">
	<g id="Path_0" style="fill-rule:nonzero;clip-rule:nonzero;fill:#FFFFFF;stroke:none;stroke-miterlimit:4;fill-opacity:100%;">
		<path d="M43.85 3.01000000000001L38.67 6.15000000000001L34.82 10L44.46 20.48L49.40 17.59z"/>
	</g>
	<g id="Path_1" style="fill-rule:nonzero;clip-rule:nonzero;fill:#FFFFFF;stroke:none;stroke-miterlimit:4;fill-opacity:100%;">
		<path d="M77.47 13.74L73.97 8.56L68.19 3.86L61.57 18.31L62.77 21.21z"/>
	</g>
	<g id="Icon Shadow" style="fill-rule:nonzero;clip-rule:nonzero;fill:#C0C0C0;stroke:none;stroke-miterlimit:4;fill-opacity:50%;">
		<path d="M58.31 86.87L52.05 90.36L45.06 93.74L38.55 96.39L32.65 98.67L29.52 99.64L25.30 100L22.77 99.4L20.96 98.92L20.00 96.63L20.24 94.46L21.45 92.53L24.70 89.52L29.88 85.54L34.82 82.77L42.53 79.04L48.92 76.02L55.06 73.13L62.29 70.12L68.31 67.95L72.29 66.75L75.66 66.51L77.47 66.99L79.28 67.83L80.84 69.16L81.32 70.84L80.84 72.89L79.28 74.46L76.63 76.51L72.77 79.04L68.67 81.57L63.49 84.34z"/>
	</g>
L43.61 70L37.59 69.04L31.57 66.15L26.14 61.57L22.77 56.27L20.48 50.96L20.12 44.58L20.60 38.92L21.45 33.62L23.13 27.95L25.18 23.01L28.19 18.19L31.33 13.98L34.82 10L43.85 3.01000000000001L49.88 0.359999999999999L56.14 0.120000000000005L55.06 16.51L49.40 17.59L44.46 20.48L40.36 24.46L37.95 28.8L35.18 34.94L34.10 40.84L35.18 46.75L37.11 49.88L39.64 52.17L44.94 53.62L56.14 0.120000000000005L62.53 1.20999999999999L68.19 3.86L77.47 13.74L79.64 19.16L79.88 25.9L79.52 32.17L78.43 37.71L76.51 43.01L74.82 47.11L71.81 52.77L68.79 56.63L65.06 60.72L60.96 64.58L55.66 68.07L49.52 69.88L43.61 70L44.94 53.62L49.64 53.25L53.73 51.33L56.02 49.52L58.92 46.27L62.17 41.57L64.34 36.39L65.30 31.09L64.82 26.03L62.77 21.21L61.57 18.31L58.55 17.47L55.06 16.51	<g id="Path_5" style="fill-rule:nonzero;clip-rule:nonzero;fill:#FFFFFF;stroke:none;stroke-miterlimit:4;fill-opacity:100%;">
		<path d="M44.94 53.62L49.64 53.25L49.52 69.88L43.61 70z"/>
	</g>
	<g id="Path_6" style="fill-rule:nonzero;clip-rule:nonzero;fill:#FFFFFF;stroke:none;stroke-miterlimit:4;fill-opacity:100%;">
		<path d="M55.66 68.07L49.52 69.88L49.64 53.25z"/>
	</g>
	<g id="Path_7" style="fill-rule:nonzero;clip-rule:nonzero;fill:#FFFFFF;stroke:none;stroke-miterlimit:4;fill-opacity:100%;">
		<path d="M55.66 68.07L60.96 64.58L53.73 51.33L49.64 53.25z"/>
	</g>
	<g id="Path_8" style="fill-rule:nonzero;clip-rule:nonzero;fill:#FFFFFF;stroke:none;stroke-miterlimit:4;fill-opacity:100%;">
		<path d="M60.96 64.58L65.06 60.72L56.02 49.52L53.73 51.33z"/>
	</g>
	<g id="Path_9" style="fill-rule:nonzero;clip-rule:nonzero;fill:#FFFFFF;stroke:none;stroke-miterlimit:4;fill-opacity:100%;">
		<path d="M65.06 60.72L68.79 56.63L58.92 46.27L56.02 49.52z"/>
	</g>
	<g id="Path_10" style="fill-rule:nonzero;clip-rule:nonzero;fill:#FFFFFF;stroke:none;stroke-miterlimit:4;fill-opacity:100%;">
		<path d="M71.81 52.77L68.79 56.63L58.92 46.27L62.17 41.57z"/>
	</g>
	<g id="Path_11" style="fill-rule:nonzero;clip-rule:nonzero;fill:#FFFFFF;stroke:none;stroke-miterlimit:4;fill-opacity:100%;">
		<path d="M71.81 52.77L74.82 47.11L64.34 36.39L62.17 41.57z"/>
	</g>
	<g id="Path_12" style="fill-rule:nonzero;clip-rule:nonzero;fill:#FFFFFF;stroke:none;stroke-miterlimit:4;fill-opacity:100%;">
		<path d="M65.30 31.09L76.51 43.01L74.82 47.11L64.34 36.39z"/>
	</g>
	<g id="Path_13" style="fill-rule:nonzero;clip-rule:nonzero;fill:#FFFFFF;stroke:none;stroke-miterlimit:4;fill-opacity:100%;">
		<path d="M76.51 43.01L78.43 37.71L79.52 32.17L64.82 26.03L65.30 31.09z"/>
	</g>
	<g id="Path_14" style="fill-rule:nonzero;clip-rule:nonzero;fill:#FFFFFF;stroke:none;stroke-miterlimit:4;fill-opacity:100%;">
		<path d="M79.52 32.17L79.88 25.9L79.64 19.16L77.47 13.74L62.77 21.21L64.82 26.03z"/>
	</g>
	<g id="Path_15" style="fill-rule:nonzero;clip-rule:nonzero;fill:#FFFFFF;stroke:none;stroke-miterlimit:4;fill-opacity:100%;">
		<path d="M68.19 3.86L62.53 1.20999999999999L58.55 17.47L61.57 18.31z"/>
	</g>
	<g id="Path_16" style="fill-rule:nonzero;clip-rule:nonzero;fill:#FFFFFF;stroke:none;stroke-miterlimit:4;fill-opacity:100%;">
		<path d="M62.53 1.20999999999999L56.14 0.120000000000005L55.06 16.51L58.55 17.47z"/>
	</g>
	<g id="Path_17" style="fill-rule:nonzero;clip-rule:nonzero;fill:#FFFFFF;stroke:none;stroke-miterlimit:4;fill-opacity:100%;">
		<path d="M56.14 0.120000000000005L49.88 0.359999999999999L55.06 16.51z"/>
	</g>
	<g id="Path_18" style="fill-rule:nonzero;clip-rule:nonzero;fill:#FFFFFF;stroke:none;stroke-miterlimit:4;fill-opacity:100%;">
		<path d="M49.88 0.359999999999999L43.85 3.01000000000001L49.40 17.59L55.06 16.51z"/>
	</g>
	<g id="Path_19" style="fill-rule:nonzero;clip-rule:nonzero;fill:#FFFFFF;stroke:none;stroke-miterlimit:4;fill-opacity:100%;">
		<path d="M34.82 10L31.33 13.98L28.19 18.19L40.36 24.46L44.46 20.48z"/>
	</g>
	<g id="Path_20" style="fill-rule:nonzero;clip-rule:nonzero;fill:#FFFFFF;stroke:none;stroke-miterlimit:4;fill-opacity:100%;">
		<path d="M28.19 18.19L25.18 23.01L37.95 28.8L40.36 24.46z"/>
	</g>
	<g id="Path_21" style="fill-rule:nonzero;clip-rule:nonzero;fill:#FFFFFF;stroke:none;stroke-miterlimit:4;fill-opacity:100%;">
		<path d="M25.18 23.01L23.13 27.95L21.45 33.62L35.18 34.94L37.95 28.8z"/>
	</g>
	<g id="Path_22" style="fill-rule:nonzero;clip-rule:nonzero;fill:#FFFFFF;stroke:none;stroke-miterlimit:4;fill-opacity:100%;">
		<path d="M21.45 33.62L20.60 38.92L20.12 44.58L34.10 40.84L35.18 34.94z"/>
	</g>
	<g id="Path_23" style="fill-rule:nonzero;clip-rule:nonzero;fill:#FFFFFF;stroke:none;stroke-miterlimit:4;fill-opacity:100%;">
		<path d="M20.12 44.58L20.48 50.96L22.77 56.27L35.18 46.75L34.10 40.84z"/>
	</g>
	<g id="Path_24" style="fill-rule:nonzero;clip-rule:nonzero;fill:#FFFFFF;stroke:none;stroke-miterlimit:4;fill-opacity:100%;">
		<path d="M22.77 56.27L26.14 61.57L37.11 49.88L35.18 46.75z"/>
	</g>
	<g id="Path_25" style="fill-rule:nonzero;clip-rule:nonzero;fill:#FFFFFF;stroke:none;stroke-miterlimit:4;fill-opacity:100%;">
		<path d="M37.11 49.88L26.14 61.57L31.57 66.15L39.64 52.17z"/>
	</g>
	<g id="Path_26" style="fill-rule:nonzero;clip-rule:nonzero;fill:#FFFFFF;stroke:none;stroke-miterlimit:4;fill-opacity:100%;">
		<path d="M44.94 53.62L43.61 70L37.59 69.04L31.57 66.15L39.64 52.17z"/>
	</g>
	<g id="Icon Accent Line 3	" style="fill-rule:none;clip-rule:nonzero;fill:none;stroke:#000000;stroke-miterlimit:4;fill-opacity:100%;">
		<path d="M64.10 15.42L67.35 18.68L69.04 21.93L70.00 25.42L70.24 28.07L70.12 31.21"/>
	</g>
	<g id="Icon Accent Line 2	" style="fill-rule:none;clip-rule:nonzero;fill:none;stroke:#000000;stroke-miterlimit:4;fill-opacity:100%;">
		<path d="M45.90 66.27L41.45 65.66L38.79 65.06"/>
	</g>
	<g id="Icon Accent Line 1" style="fill-rule:none;clip-rule:nonzero;fill:none;stroke:#000000;stroke-miterlimit:4;fill-opacity:100%;">
		<path d="M34.34 62.05L32.17 60.12L30.60 58.55L28.80 56.63L27.35 54.34L26.26 52.05L25.78 49.4L25.18 46.75L25.18 44.22"/>
	</g>
	<g id="Icon Outside Outline" style="fill-rule:none;clip-rule:nonzero;fill:none;stroke:#000000;stroke-miterlimit:4;fill-opacity:100%;">
		<path d="M43.61 70L37.59 69.04L31.57 66.15L26.14 61.57L22.77 56.27L20.48 50.96L20.12 44.58L20.60 38.92L21.45 33.62L23.13 27.95L25.18 23.01L28.19 18.19L31.33 13.98L34.82 10L38.67 6.15000000000001L43.85 3.01000000000001L49.88 0.359999999999999L56.14 0.120000000000005L62.53 1.20999999999999L68.19 3.86L73.97 8.56L77.47 13.74L79.64 19.16L79.88 25.9L79.52 32.17L78.43 37.71L76.51 43.01L74.82 47.11L71.81 52.77L68.79 56.63L65.06 60.72L60.96 64.58L55.66 68.07L49.52 69.88z"/>
	</g>
	<g id="Icon Inside Outline" style="fill-rule:none;clip-rule:nonzero;fill:none;stroke:#000000;stroke-miterlimit:4;fill-opacity:100%;">
		<path d="M44.76 53.82L49.46 53.45L53.55 51.53L55.84 49.72L58.74 46.47L61.99 41.77L64.16 36.59L65.12 31.29L64.64 26.23L62.59 21.41L61.39 18.51L58.37 17.67L54.88 16.71L54.88 16.71L49.22 17.79L44.28 20.68L40.18 24.66L37.77 29L35.00 35.14L33.92 41.04L35.00 46.95L36.93 50.08L39.46 52.37z"/>
	</g>
</g>
</svg>