<?xml version="1.0" standalone="no"?>
<!DOCTYPE svg PUBLIC "-//W3C//DTD SVG 20000303 Stylable//EN"
	"http://www.w3.org/TR/2000/03/WD-SVG-20000303/DTD/svg-20000303-stylable.dtd">
<svg width="50pt" height="50pt" viewBox="0 0 50 50" xml:space="preserve">
<g transform="scale(0.5)">
	<g id="Folder Back Polygon 1" style="fill-rule:nonzero;clip-rule:nonzero;fill:#FFFFFF;stroke:none;stroke-miterlimit:4;fill-opacity:100%;">
		<path d="M6.44 30.8L5.00 30.08L5.00 12.5L8.55 10.64L15.38 7.14L25.75 1.95999999999999L25.75 19.62L27.14 20.42z"/>
	</g>
	<g id="Folder Back Polygon 2 -- Tab on Top" style="fill-rule:nonzero;clip-rule:nonzero;fill:#FFFFFF;stroke:none;stroke-miterlimit:4;fill-opacity:100%;">
		<path d="M8.55 10.64L9.13 8.87L14.79 5.62L15.38 7.14z"/>
	</g>
	<g id="Folder Back Outline" style="fill-rule:none;clip-rule:nonzero;fill:none;stroke:#000000;stroke-miterlimit:4;fill-opacity:100%;">
		<path d="M6.44 30.8L5.00 30.08L5.00 12.5L8.55 10.64L9.13 8.87L9.13 8.87L14.59 5.29000000000001L15.38 7.14L25.75 1.95999999999999L25.75 19.62L27.14 20.42"/>
	</g>
	<g id="Folder Back Polygon 1" style="fill-rule:nonzero;clip-rule:nonzero;fill:#FFFFFF;stroke:none;stroke-miterlimit:4;fill-opacity:100%;">
		<path d="M6.44 30.8L5.00 30.08L5.00 12.5L8.55 10.64L15.38 7.14L25.75 1.95999999999999L25.75 19.62L27.14 20.43z"/>
	</g>
	<g id="Folder Back Polygon 2 -- Tab on Top" style="fill-rule:nonzero;clip-rule:nonzero;fill:#FFFFFF;stroke:none;stroke-miterlimit:4;fill-opacity:100%;">
		<path d="M8.55 10.64L9.12 8.02L14.59 5.29000000000001L15.38 7.14z"/>
	</g>
	<g id="Folder Back Outline" style="fill-rule:none;clip-rule:nonzero;fill:none;stroke:#000000;stroke-miterlimit:4;fill-opacity:100%;">
		<path d="M6.44 30.8L5.00 30.08L5.00 12.5L8.55 10.64L9.12 8.02L14.59 5.29000000000001L15.38 7.14L25.75 1.95999999999999L25.75 19.62"/>
	</g>
	<g id="Folder Front Outline	" style="fill-rule:none;clip-rule:nonzero;fill:#FFFFFF;stroke:#000000;stroke-miterlimit:4;fill-opacity:100%;">
		<path d="M6.44 30.8L6.44 13.51L9.52 11.91L10.20 14.7L15.98 11.83L16.27 8.54000000000001L27.14 3.14L27.14 20.43z"/>
	</g>
	<g id="Folder Back Polygon 1" style="fill-rule:nonzero;clip-rule:nonzero;fill:#FFFFFF;stroke:none;stroke-miterlimit:4;fill-opacity:100%;">
		<path d="M11.44 38.3L10.00 37.58L10.00 20L13.55 18.14L20.38 14.64L30.75 9.45999999999999L30.75 27.12L32.14 27.92z"/>
	</g>
	<g id="Folder Back Polygon 2 -- Tab on Top" style="fill-rule:nonzero;clip-rule:nonzero;fill:#FFFFFF;stroke:none;stroke-miterlimit:4;fill-opacity:100%;">
		<path d="M13.55 18.14L14.13 16.37L19.79 13.12L20.38 14.64z"/>
	</g>
	<g id="Folder Back Outline" style="fill-rule:none;clip-rule:nonzero;fill:none;stroke:#000000;stroke-miterlimit:4;fill-opacity:100%;">
		<path d="M11.44 38.3L10.00 37.58L10.00 20L13.55 18.14L14.13 16.37L14.13 16.37L19.59 12.79L20.38 14.64L30.75 9.45999999999999L30.75 27.12L32.14 27.92"/>
	</g>
	<g id="Folder Back Polygon 1" style="fill-rule:nonzero;clip-rule:nonzero;fill:#FFFFFF;stroke:none;stroke-miterlimit:4;fill-opacity:100%;">
		<path d="M11.44 38.3L10.00 37.58L10.00 20L13.55 18.14L20.38 14.64L30.75 9.45999999999999L30.75 27.12L32.14 27.93z"/>
	</g>
	<g id="Folder Back Polygon 2 -- Tab on Top" style="fill-rule:nonzero;clip-rule:nonzero;fill:#FFFFFF;stroke:none;stroke-miterlimit:4;fill-opacity:100%;">
		<path d="M13.55 18.14L14.12 15.52L19.59 12.79L20.38 14.64z"/>
	</g>
	<g id="Folder Back Outline" style="fill-rule:none;clip-rule:nonzero;fill:none;stroke:#000000;stroke-miterlimit:4;fill-opacity:100%;">
		<path d="M11.44 38.3L10.00 37.58L10.00 20L13.55 18.14L14.12 15.52L19.59 12.79L20.38 14.64L30.75 9.45999999999999L30.75 27.12"/>
	</g>
	<g id="Folder Front Outline	" style="fill-rule:none;clip-rule:nonzero;fill:#FFFFFF;stroke:#000000;stroke-miterlimit:4;fill-opacity:100%;">
		<path d="M11.44 38.3L11.44 21.01L14.52 19.41L15.20 22.2L20.98 19.33L21.27 16.04L32.14 10.64L32.14 27.93z"/>
	</g>
	<g id="Folder Back Polygon 1" style="fill-rule:nonzero;clip-rule:nonzero;fill:#FFFFFF;stroke:none;stroke-miterlimit:4;fill-opacity:100%;">
		<path d="M16.44 45.8L15.00 45.08L15.00 27.5L18.55 25.64L25.38 22.14L35.75 16.96L35.75 34.62L37.14 35.42z"/>
	</g>
	<g id="Folder Back Polygon 2 -- Tab on Top" style="fill-rule:nonzero;clip-rule:nonzero;fill:#FFFFFF;stroke:none;stroke-miterlimit:4;fill-opacity:100%;">
		<path d="M18.55 25.64L19.13 23.87L24.79 20.62L25.38 22.14z"/>
	</g>
	<g id="Folder Back Outline" style="fill-rule:none;clip-rule:nonzero;fill:none;stroke:#000000;stroke-miterlimit:4;fill-opacity:100%;">
		<path d="M16.44 45.8L15.00 45.08L15.00 27.5L18.55 25.64L19.13 23.87L19.13 23.87L24.59 20.29L25.38 22.14L35.75 16.96L35.75 34.62L37.14 35.42"/>
	</g>
	<g id="Folder Back Polygon 1" style="fill-rule:nonzero;clip-rule:nonzero;fill:#FFFFFF;stroke:none;stroke-miterlimit:4;fill-opacity:100%;">
		<path d="M16.44 45.8L15.00 45.08L15.00 27.5L18.55 25.64L25.38 22.14L35.75 16.96L35.75 34.62L37.14 35.43z"/>
	</g>
	<g id="Folder Back Polygon 2 -- Tab on Top" style="fill-rule:nonzero;clip-rule:nonzero;fill:#FFFFFF;stroke:none;stroke-miterlimit:4;fill-opacity:100%;">
		<path d="M18.55 25.64L19.12 23.02L24.59 20.29L25.38 22.14z"/>
	</g>
	<g id="Folder Back Outline" style="fill-rule:none;clip-rule:nonzero;fill:none;stroke:#000000;stroke-miterlimit:4;fill-opacity:100%;">
		<path d="M16.44 45.8L15.00 45.08L15.00 27.5L18.55 25.64L19.12 23.02L24.59 20.29L25.38 22.14L35.75 16.96L35.75 34.62"/>
	</g>
	<g id="Folder Front Outline	" style="fill-rule:none;clip-rule:nonzero;fill:#FFFFFF;stroke:#000000;stroke-miterlimit:4;fill-opacity:100%;">
		<path d="M16.44 45.8L16.44 28.51L19.52 26.91L20.20 29.7L25.98 26.83L26.27 23.54L37.14 18.14L37.14 35.43z"/>
	</g>
</g>
</svg>