<?xml version="1.0" standalone="no"?>
<!DOCTYPE svg PUBLIC "-//W3C//DTD SVG 20000303 Stylable//EN"
	"http://www.w3.org/TR/2000/03/WD-SVG-20000303/DTD/svg-20000303-stylable.dtd">
<svg width="50pt" height="50pt" viewBox="0 0 50 50" xml:space="preserve">
<g transform="scale(0.5)">
	<g id="Icon" style="fill-rule:nonzero;clip-rule:nonzero;fill:#f8fcf8;stroke:none;stroke-miterlimit:4;">
		<path d="M15.00 52.5L15.18 16.37L44.57 1.84L44.39 37.98z"/>
	</g>
	<g id="Icon" style="fill-rule:nonzero;clip-rule:nonzero;fill:#FFFFFF;stroke:none;stroke-miterlimit:4;fill-opacity:100%;">
		<path d="M17.35 47.89L17.35 18.52L41.87 6.25L41.87 35.98z"/>
	</g>
	<g id="Solid Poly " style="fill-rule:nonzero;clip-rule:nonzero;fill:#888c38;stroke:none;stroke-miterlimit:4;fill-opacity:100%;">
		<path d="M17.35 47.89L16.91 19.18L18.40 23.94L17.91 26.33L18.05 28.32L18.80 30.64L20.10 32.43L21.81 33.93L23.00 36.24L23.80 38.73L26.12 40.86L30.21 41.82z"/>
	</g>
	<g id="Line 2" style="fill-rule:none;clip-rule:nonzero;fill:none;stroke:#C0C0C0;stroke-miterlimit:4;fill-opacity:50%;">
		<path d="M17.74 18.61L20.49 17.83"/>
	</g>
	<g id="Line 4" style="fill-rule:none;clip-rule:nonzero;fill:none;stroke:#388c88;stroke-miterlimit:4;fill-opacity:50%;">
		<path d="M33.05 13.65L41.40 9.45999999999999"/>
	</g>
	<g id="Line 5" style="fill-rule:none;clip-rule:nonzero;fill:none;stroke:#C0C0C0;stroke-miterlimit:4;fill-opacity:50%;">
		<path d="M33.05 15.32L38.07 12.81"/>
	</g>
	<g id="Line 6" style="fill-rule:none;clip-rule:nonzero;fill:none;stroke:#C0C0C0;stroke-miterlimit:4;fill-opacity:50%;">
		<path d="M38.07 13.65L41.40 11.96"/>
	</g>
	<g id="Line 7" style="fill-rule:none;clip-rule:nonzero;fill:none;stroke:#7070c0;stroke-miterlimit:4;fill-opacity:50%;">
		<path d="M33.88 17L37.22 15.32"/>
	</g>
	<g id="Line 8" style="fill-rule:none;clip-rule:nonzero;fill:none;stroke:#0000f8;stroke-miterlimit:4;fill-opacity:50%;">
		<path d="M33.05 18.66L37.22 16.57"/>
	</g>
	<g id="Line 9" style="fill-rule:none;clip-rule:nonzero;fill:none;stroke:#388c88;stroke-miterlimit:4;fill-opacity:50%;">
		<path d="M39.74 15.74L41.40 14.91"/>
	</g>
	<g id="Line 10" style="fill-rule:none;clip-rule:nonzero;fill:none;stroke:#7070c0;stroke-miterlimit:4;fill-opacity:50%;">
		<path d="M33.88 19.5L38.91 17"/>
	</g>
	<g id="Line 11" style="fill-rule:none;clip-rule:nonzero;fill:none;stroke:#7070c0;stroke-miterlimit:4;fill-opacity:50%;">
		<path d="M39.74 28.3L41.40 27.45"/>
	</g>
	<g id="Line 12" style="fill-rule:none;clip-rule:nonzero;fill:none;stroke:#7070c0;stroke-miterlimit:4;fill-opacity:50%;">
		<path d="M38.91 31.64L41.40 30.39"/>
	</g>
	<g id="Line 13" style="fill-rule:none;clip-rule:nonzero;fill:none;stroke:#7070c0;stroke-miterlimit:4;fill-opacity:50%;">
		<path d="M38.07 34.58L41.40 32.9"/>
	</g>
	<g id="Line 14" style="fill-rule:none;clip-rule:nonzero;fill:none;stroke:#7070c0;stroke-miterlimit:4;fill-opacity:50%;">
		<path d="M37.22 37.41L41.40 35.32"/>
	</g>
	<g id="Line 15" style="fill-rule:none;clip-rule:nonzero;fill:none;stroke:#505450;stroke-miterlimit:4;fill-opacity:50%;">
		<path d="M23.00 18.66L27.19 16.57"/>
	</g>
	<g id="Line 16" style="fill-rule:none;clip-rule:nonzero;fill:none;stroke:#C0C0C0;stroke-miterlimit:4;fill-opacity:50%;">
		<path d="M21.32 20.34L28.02 17"/>
	</g>
	<g id="Line 17" style="fill-rule:none;clip-rule:nonzero;fill:none;stroke:#7070c0;stroke-miterlimit:4;fill-opacity:50%;">
		<path d="M23.83 22.01L28.02 19.92"/>
	</g>
	<g id="Line 18" style="fill-rule:none;clip-rule:nonzero;fill:none;stroke:#0000f8;stroke-miterlimit:4;fill-opacity:50%;">
		<path d="M23.00 24.53L29.28 21.38"/>
	</g>
	<g id="Line 19" style="fill-rule:none;clip-rule:nonzero;fill:none;stroke:#7070c0;stroke-miterlimit:4;fill-opacity:50%;">
		<path d="M26.35 23.68L28.02 22.85"/>
	</g>
	<g id="Line 20" style="fill-rule:none;clip-rule:nonzero;fill:none;stroke:#505450;stroke-miterlimit:4;fill-opacity:50%;">
		<path d="M29.69 27.04L31.37 26.21"/>
	</g>
	<g id="Line 21" style="fill-rule:none;clip-rule:nonzero;fill:none;stroke:#505450;stroke-miterlimit:4;fill-opacity:50%;">
		<path d="M29.69 27.87L31.37 27.04"/>
	</g>
	<g id="Line 22" style="fill-rule:none;clip-rule:nonzero;fill:none;stroke:#505450;stroke-miterlimit:4;fill-opacity:50%;">
		<path d="M33.05 26.21L34.72 25.36"/>
	</g>
	<g id="Line 23" style="fill-rule:none;clip-rule:nonzero;fill:none;stroke:#f80000;stroke-miterlimit:4;fill-opacity:50%;">
		<path d="M29.69 32.48L30.53 32.06"/>
	</g>
	<g id="Line 24" style="fill-rule:none;clip-rule:nonzero;fill:none;stroke:#f80000;stroke-miterlimit:4;fill-opacity:50%;">
		<path d="M32.63 31.02L36.39 29.13"/>
	</g>
	<g id="Line 25" style="fill-rule:none;clip-rule:nonzero;fill:none;stroke:#f80000;stroke-miterlimit:4;fill-opacity:50%;">
		<path d="M28.85 34.15L36.39 30.39"/>
	</g>
	<g id="Line 26" style="fill-rule:none;clip-rule:nonzero;fill:none;stroke:#c07070;stroke-miterlimit:4;fill-opacity:50%;">
		<path d="M29.69 34.15L36.39 30.8"/>
	</g>
	<g id="Line 27" style="fill-rule:none;clip-rule:nonzero;fill:none;stroke:#f80000;stroke-miterlimit:4;fill-opacity:50%;">
		<path d="M30.53 34.99L36.39 32.06"/>
	</g>
	<g id="Icon" style="fill-rule:none;clip-rule:nonzero;fill:none;stroke:#000000;stroke-miterlimit:4;fill-opacity:100%;">
		<path d="M17.35 47.89L17.35 18.52L41.87 6.25L41.87 35.98z"/>
	</g>
</g>
</svg>