<?xml version="1.0" standalone="no"?>
<!DOCTYPE svg PUBLIC "-//W3C//DTD SVG 20000303 Stylable//EN"
	"http://www.w3.org/TR/2000/03/WD-SVG-20000303/DTD/svg-20000303-stylable.dtd">
<svg width="50pt" height="50pt" viewBox="0 0 50 50" xml:space="preserve">
<g transform="scale(0.5)">
	<g id="Folder Back Polygon 1" style="fill-rule:nonzero;clip-rule:nonzero;fill:#FFFFFF;stroke:none;stroke-miterlimit:4;fill-opacity:100%;">
		<path d="M16.44 33.22L15.00 32.5L15.00 14.92L18.55 13.06L25.38 9.56L35.75 4.38L35.75 22.04L37.14 22.84z"/>
	</g>
	<g id="Folder Back Polygon 2 -- Tab on Top" style="fill-rule:nonzero;clip-rule:nonzero;fill:#FFFFFF;stroke:none;stroke-miterlimit:4;fill-opacity:100%;">
		<path d="M18.55 13.06L19.13 11.29L24.79 8.04000000000001L25.38 9.56z"/>
	</g>
	<g id="Folder Back Outline" style="fill-rule:none;clip-rule:nonzero;fill:none;stroke:#000000;stroke-miterlimit:4;fill-opacity:100%;">
		<path d="M16.44 33.22L15.00 32.5L15.00 14.92L18.55 13.06L19.13 11.29L19.13 11.29L24.59 7.70999999999999L25.38 9.56L35.75 4.38L35.75 22.04L37.14 22.84"/>
	</g>
	<g id="Folder Back Polygon 1" style="fill-rule:nonzero;clip-rule:nonzero;fill:#FFFFFF;stroke:none;stroke-miterlimit:4;fill-opacity:100%;">
		<path d="M16.44 33.22L15.00 32.5L15.00 14.92L18.55 13.06L25.38 9.56L35.75 4.38L35.75 22.04L37.14 22.85z"/>
	</g>
	<g id="Folder Back Polygon 2 -- Tab on Top" style="fill-rule:nonzero;clip-rule:nonzero;fill:#FFFFFF;stroke:none;stroke-miterlimit:4;fill-opacity:100%;">
		<path d="M18.55 13.06L19.12 10.44L24.59 7.70999999999999L25.38 9.56z"/>
	</g>
	<g id="Folder Back Outline" style="fill-rule:none;clip-rule:nonzero;fill:none;stroke:#000000;stroke-miterlimit:4;fill-opacity:100%;">
		<path d="M16.44 33.22L15.00 32.5L15.00 14.92L18.55 13.06L19.12 10.44L24.59 7.70999999999999L25.38 9.56L35.75 4.38L35.75 22.04"/>
	</g>
	<g id="Folder Front Outline	" style="fill-rule:none;clip-rule:nonzero;fill:#FFFFFF;stroke:#000000;stroke-miterlimit:4;fill-opacity:100%;">
		<path d="M16.44 33.22L16.44 15.93L19.52 14.33L20.20 17.12L25.98 14.25L26.27 10.96L37.14 5.56L37.14 22.85z"/>
	</g>
	<g id="Path_7" style="fill-rule:nonzero;clip-rule:nonzero;fill:#007e00;stroke:none;stroke-miterlimit:4;fill-opacity:100%;">
		<path d="M22.60 22.8L27.60 25.3L32.60 17.8L27.60 15.3z"/>
	</g>
</g>
</svg>