<?xml version="1.0" standalone="no"?>
<!DOCTYPE svg PUBLIC "-//W3C//DTD SVG 20000303 Stylable//EN"
	"http://www.w3.org/TR/2000/03/WD-SVG-20000303/DTD/svg-20000303-stylable.dtd">
<svg width="50pt" height="50pt" viewBox="0 0 50 50" xml:space="preserve">
<g transform="scale(0.5)">
	<g id="Icon Shadow" style="fill-rule:nonzero;clip-rule:nonzero;fill:#C0C0C0;stroke:none;stroke-miterlimit:4;fill-opacity:50%;">
		<path d="M38.83 99.78L22.00 90.88L60.55 71.22L77.82 79.8z"/>
	</g>
	<g id="Paper Sheet 1" style="fill-rule:none;clip-rule:nonzero;fill:#FFFFFF;stroke:#000000;stroke-miterlimit:4;fill-opacity:100%;">
		<path d="M22.00 80.13L22.00 20.5L60.01 1.06999999999999L60.01 60.8z"/>
	</g>
	<g id="Paper Sheet 2" style="fill-rule:none;clip-rule:nonzero;fill:#FFFFFF;stroke:#000000;stroke-miterlimit:4;fill-opacity:100%;">
		<path d="M30.69 84.47L30.69 25.17L68.70 5.41L68.70 65.03z"/>
	</g>
	<g id="Third Sheet of Paper -- Closed" style="fill-rule:none;clip-rule:nonzero;fill:#FFFFFF;stroke:#000000;stroke-miterlimit:4;fill-opacity:100%;">
		<path d="M39.59 88.49L39.59 29.52L77.39 10.08L77.39 69.16z"/>
	</g>
	<g id="Path_48" style="fill-rule:nonzero;clip-rule:nonzero;fill:#C0C0C0;stroke:none;stroke-miterlimit:4;fill-opacity:50%;">
		<path d="M37.21 64.43L41.06 61.95L48.77 61.38L60.62 67.35L58.07 73.31L64.91 74.84L64.58 79.2L86.07 89.95L86.13 96.47L82.80 96.72L82.80 99.2L73.05 99.9L73.05 94.92L66.78 95.37L63.78 93.88L63.77 91.24L58.07 91.66L54.79 90.05L54.65 86.82L43.74 88.03L38.17 85.16L29.68 87.48L17.98 81.72L17.98 76.8L21.96 74.22z"/>
	</g>
	<g id="Path_48" style="fill-rule:none;clip-rule:nonzero;fill:#a4a828;stroke:#000000;stroke-miterlimit:4;fill-opacity:50%;">
		<path d="M34.79 21.19L38.55 24.95L42.28 21.19L49.78 21.19L59.41 33.14L57.82 42.15L65.49 46.13L65.16 53.52L86.08 74.49L86.13 85.64L82.90 85.64L82.90 89.86L73.41 89.86L73.41 81.38L67.31 81.38L64.39 78.47L64.37 73.95L58.83 73.96L55.63 70.82L55.50 65.3L44.88 66.01L39.47 60.44L31.21 63.35L19.82 52.08L19.82 43.69L23.70 39.78L19.82 36.18L19.82 28.7L27.29 21.19z"/>
	</g>
	<g id="Path_48" style="fill-rule:none;clip-rule:nonzero;fill:#FFFFFF;stroke:#000000;stroke-miterlimit:4;fill-opacity:100%;">
		<path d="M34.79 16.15L38.55 19.91L42.28 16.15L49.78 16.15L61.32 27.78L58.83 37.65L65.49 41.09L65.16 48.48L86.08 69.45L86.13 80.6L82.90 80.6L82.90 84.82L73.41 84.82L73.41 76.34L67.31 76.34L64.39 73.43L64.37 68.91L58.83 68.92L55.63 65.78L55.50 60.27L44.88 60.97L39.47 55.4L31.21 58.32L19.82 47.04L19.82 38.65L23.70 34.74L19.82 31.15L19.82 23.66L27.29 16.15z"/>
	</g>
	<g id="Path_49" style="fill-rule:none;clip-rule:nonzero;fill:#C0C0C0;stroke:#000000;stroke-miterlimit:4;fill-opacity:50%;">
		<path d="M29.49 22L32.91 25.43L29.49 28.84L26.07 25.43z"/>
	</g>
	<g id="Path_50" style="fill-rule:none;clip-rule:nonzero;fill:none;stroke:#000000;stroke-miterlimit:4;fill-opacity:50%;">
		<path d="M46.94 24.39L33.50 37.89L30.50 37.89L30.20 41.18"/>
	</g>
	<g id="Path_51" style="fill-rule:none;clip-rule:nonzero;fill:none;stroke:#000000;stroke-miterlimit:4;fill-opacity:100%;">
		<path d="M83.21 79.79L52.38 49.29L52.38 45.8L56.11 45.8"/>
	</g>
	<g id="Path_50" style="fill-rule:none;clip-rule:nonzero;fill:none;stroke:#888c38;stroke-miterlimit:4;fill-opacity:100%;">
		<path d="M58.52 37.97L41.59 54.87"/>
	</g>
	<g id="Path_50" style="fill-rule:none;clip-rule:nonzero;fill:none;stroke:#000000;stroke-miterlimit:4;fill-opacity:100%;">
		<path d="M51.09 26.51L35.22 42.4L32.22 42.4L31.92 45.69"/>
	</g>
	<g id="Path_54" style="fill-rule:none;clip-rule:nonzero;fill:none;stroke:#000000;stroke-miterlimit:4;fill-opacity:100%;">
		<path d="M84.76 78.21L52.38 45.8"/>
	</g>
	<g id="Path_53" style="fill-rule:none;clip-rule:nonzero;fill:none;stroke:#FFFFFF;stroke-miterlimit:4;fill-opacity:100%;">
		<path d="M59.57 32.02L39.70 51.9L33.07 51.9L22.86 41.88"/>
	</g>
	<g id="Path_48" style="fill-rule:nonzero;clip-rule:nonzero;fill:#C0C0C0;stroke:none;stroke-miterlimit:4;fill-opacity:50%;">
		<path d="M33.47 68.08L37.32 69.99L31.19 73.94L28.05 71.86L21.79 71.19L25.76 68.63z"/>
	</g>
	<g id="Path_48" style="fill-rule:nonzero;clip-rule:nonzero;fill:#C0C0C0;stroke:none;stroke-miterlimit:4;fill-opacity:50%;">
		<path d="M28.05 71.86L24.58 74.55L27.95 76.02L22.07 79.79L18.08 77.98L18.08 73.59L21.79 71.19z"/>
	</g>
</g>
</svg>