<?xml version="1.0" standalone="no"?>
<!DOCTYPE svg PUBLIC "-//W3C//DTD SVG 20000303 Stylable//EN"
	"http://www.w3.org/TR/2000/03/WD-SVG-20000303/DTD/svg-20000303-stylable.dtd">
<svg width="50pt" height="50pt" viewBox="0 0 50 50" xml:space="preserve">
<g transform="scale(0.5)">
	<g id="Square Icon Shadow" style="fill-rule:nonzero;clip-rule:nonzero;fill:#C0C0C0;stroke:none;stroke-miterlimit:4;fill-opacity:50%;">
		<path d="M28.94 100L0.00 84.85L23.61 72.29L53.92 87.31z"/>
	</g>
	<g id="Wedge Icon Shadow" style="fill-rule:nonzero;clip-rule:nonzero;fill:#C0C0C0;stroke:none;stroke-miterlimit:4;fill-opacity:50%;">
		<path d="M52.14 80.75L29.21 69.42L53.78 57.28L76.71 68.74z"/>
	</g>
	<g id="Ellipse Icon Shadow" style="fill-rule:nonzero;clip-rule:nonzero;fill:#C0C0C0;stroke:none;stroke-miterlimit:4;fill-opacity:50%;">
		<path d="M81.86 92.01L78.62 91.74L74.80 91.19L68.11 88.41L64.43 83L64.43 78.88L68.11 73.83L74.80 70.69L78.62 70.14L81.86 69.87L86.16 70.14L90.65 71.1L94.94 73.47L99.30 78.88L99.30 83L94.94 88.41L90.65 90.79L86.16 91.74z"/>
	</g>
	<g id="Square Icon" style="fill-rule:none;clip-rule:nonzero;fill:#FFFFFF;stroke:#000000;stroke-miterlimit:4;fill-opacity:100%;">
		<path d="M28.94 85.8L0.00 71.2L23.61 58.64L53.92 73.66z"/>
	</g>
	<g id="Wedge Icon" style="fill-rule:none;clip-rule:nonzero;fill:#FFFFFF;stroke:#000000;stroke-miterlimit:4;fill-opacity:100%;">
		<path d="M52.42 67.51L28.80 56.05L28.80 38.61L54.05 25.98L76.30 55.5z"/>
	</g>
	<g id="Wedge Icon Extra Line" style="fill-rule:none;clip-rule:nonzero;fill:none;stroke:#000000;stroke-miterlimit:4;fill-opacity:100%;">
		<path d="M52.42 67.51L28.80 38.61"/>
	</g>
	<g id="Ellipse Icon" style="fill-rule:none;clip-rule:nonzero;fill:#FFFFFF;stroke:#000000;stroke-miterlimit:4;fill-opacity:100%;">
		<path d="M81.86 82.01L78.62 81.74L74.80 81.19L68.11 78.41L64.43 73L64.43 68.88L68.11 63.83L74.80 60.69L78.62 60.14L81.86 59.87L86.16 60.14L90.65 61.1L94.94 63.47L99.30 68.88L99.30 73L94.94 78.41L90.65 80.79L86.16 81.74z"/>
	</g>
</g>
</svg>