<?xml version="1.0" standalone="no"?>
<!DOCTYPE svg PUBLIC "-//W3C//DTD SVG 20000303 Stylable//EN"
	"http://www.w3.org/TR/2000/03/WD-SVG-20000303/DTD/svg-20000303-stylable.dtd">
<svg width="50pt" height="50pt" viewBox="0 0 50 50" xml:space="preserve">
<g transform="scale(0.5)">
	<g id="Icon Shadow" style="fill-rule:nonzero;clip-rule:nonzero;fill:#C0C0C0;stroke:none;stroke-miterlimit:4;fill-opacity:50%;">
		<path d="M39.00 100L15.00 87L52.00 68.5L76.00 81.5z"/>
	</g>
	<g id="Always Draw Back Three Pages" style="fill-rule:none;clip-rule:nonzero;fill:#FFFFFF;stroke:#000000;stroke-miterlimit:4;fill-opacity:100%;">
		<path d="M15.00 76.85L18.60 18.61L55.65 0.0799999999999983L51.32 59.15z"/>
	</g>
	<g id="Path_2" style="fill-rule:none;clip-rule:nonzero;fill:#FFFFFF;stroke:#000000;stroke-miterlimit:4;fill-opacity:100%;">
		<path d="M26.83 82.92L18.60 18.61L55.65 0.0799999999999983L63.57 64.5z"/>
	</g>
	<g id="Path_3" style="fill-rule:none;clip-rule:nonzero;fill:#FFFFFF;stroke:#000000;stroke-miterlimit:4;fill-opacity:100%;">
		<path d="M26.83 82.92L29.10 23.65L65.42 5.43000000000001L63.57 64.5z"/>
	</g>
	<g id="Top Two Pages When Closed" style="fill-rule:none;clip-rule:nonzero;fill:#FFFFFF;stroke:#000000;stroke-miterlimit:4;fill-opacity:100%;">
		<path d="M38.98 89.71L29.10 23.65L65.42 5.43000000000001L76.12 70.78z"/>
	</g>
	<g id="Path_1" style="fill-rule:none;clip-rule:nonzero;fill:#FFFFFF;stroke:#000000;stroke-miterlimit:4;fill-opacity:100%;">
		<path d="M38.98 89.71L38.98 28.69L76.12 10.37L76.12 70.78z"/>
	</g>
	<g id="Line 6" style="fill-rule:none;clip-rule:nonzero;fill:none;stroke:#000000;stroke-miterlimit:4;fill-opacity:100%;">
		<path d="M47.21 68.1L70.57 56.99"/>
	</g>
	<g id="Line 7" style="fill-rule:none;clip-rule:nonzero;fill:none;stroke:#000000;stroke-miterlimit:4;fill-opacity:100%;">
		<path d="M47.41 75.2L70.67 64.5"/>
	</g>
	<g id="C" style="fill-rule:none;clip-rule:nonzero;fill:none;stroke:#000000;stroke-miterlimit:4;fill-opacity:100%;">
		<path d="M63.00 47.5L62.90 47.5L61.80 50.7L60.00 53.1L56.50 55.3L54.00 55.8L51.40 55.5L48.90 53.1L47.50 48.9L47.30 44.8L47.50 41L48.90 35.7L50.90 32.4L53.90 29.7L56.70 28.8L59.00 28.9L61.20 30L63.00 33.1"/>
	</g>
	<g id="C Extra Outline" style="fill-rule:none;clip-rule:nonzero;fill:none;stroke:#000000;stroke-miterlimit:4;fill-opacity:100%;">
		<path d="M50.90 53.1L49.50 48.9L49.50 44.8L49.50 41L50.50 35.7"/>
	</g>
	<g id="Plus Marks" style="fill-rule:none;clip-rule:nonzero;fill:none;stroke:#000000;stroke-miterlimit:4;fill-opacity:100%;">
		<path d="M55.00 42.5L62.00 39"/>
	</g>
	<g id="Path_3" style="fill-rule:none;clip-rule:nonzero;fill:none;stroke:#000000;stroke-miterlimit:4;fill-opacity:100%;">
		<path d="M59.00 45L59.00 36"/>
	</g>
	<g id="Path_4" style="fill-rule:none;clip-rule:nonzero;fill:none;stroke:#000000;stroke-miterlimit:4;fill-opacity:100%;">
		<path d="M65.00 38L72.00 34.5"/>
	</g>
	<g id="Path_5" style="fill-rule:none;clip-rule:nonzero;fill:none;stroke:#000000;stroke-miterlimit:4;fill-opacity:100%;">
		<path d="M68.00 41.5L68.00 32"/>
	</g>
</g>
</svg>