<?xml version="1.0" standalone="no"?>
<!DOCTYPE svg PUBLIC "-//W3C//DTD SVG 20000303 Stylable//EN"
	"http://www.w3.org/TR/2000/03/WD-SVG-20000303/DTD/svg-20000303-stylable.dtd">
<svg width="50pt" height="50pt" viewBox="0 0 50 50" xml:space="preserve">
<g transform="scale(0.5)">
	<g id="Paper Sheet 1" style="fill-rule:none;clip-rule:nonzero;fill:#FFFFFF;stroke:#000000;stroke-miterlimit:4;fill-opacity:100%;">
		<path d="M34.05 65.6L34.05 16.42L65.40 0.400000000000006L65.40 49.66z"/>
	</g>
	<g id="Paper Sheet 2" style="fill-rule:none;clip-rule:nonzero;fill:#FFFFFF;stroke:#000000;stroke-miterlimit:4;fill-opacity:100%;">
		<path d="M41.25 69L41.25 20.1L72.60 3.8L72.60 52.97z"/>
	</g>
	<g id="Third Sheet of Paper -- Closed" style="fill-rule:none;clip-rule:nonzero;fill:#FFFFFF;stroke:#000000;stroke-miterlimit:4;fill-opacity:100%;">
		<path d="M48.63 71.86L48.63 23.23L79.80 7.2L79.80 55.92z"/>
	</g>
	<g id="Path_0" style="fill-rule:none;clip-rule:nonzero;fill:none;stroke:#C0C0C0;stroke-miterlimit:4;fill-opacity:50%;">
		<path d="M54.35 34.87L31.99 23.7"/>
	</g>
	<g id="Path_1" style="fill-rule:none;clip-rule:nonzero;fill:none;stroke:#C0C0C0;stroke-miterlimit:4;fill-opacity:50%;">
		<path d="M54.35 42.33L31.99 53.5"/>
	</g>
	<g id="Path_2" style="fill-rule:none;clip-rule:nonzero;fill:none;stroke:#C0C0C0;stroke-miterlimit:4;fill-opacity:50%;">
		<path d="M61.80 68.39L61.80 46.06"/>
	</g>
	<g id="Path_3" style="fill-rule:none;clip-rule:nonzero;fill:none;stroke:#C0C0C0;stroke-miterlimit:4;fill-opacity:50%;">
		<path d="M87.72 48.44L75.81 42.33"/>
	</g>
	<g id="Path_4" style="fill-rule:none;clip-rule:nonzero;fill:none;stroke:#C0C0C0;stroke-miterlimit:4;fill-opacity:50%;">
		<path d="M61.80 8.8L61.80 8.8L61.80 31.15"/>
	</g>
	<g id="Path_5" style="fill-rule:none;clip-rule:nonzero;fill:none;stroke:#C0C0C0;stroke-miterlimit:4;fill-opacity:50%;">
		<path d="M88.27 28.65L75.81 34.87"/>
	</g>
	<g id="Path_6" style="fill-rule:none;clip-rule:nonzero;fill:none;stroke:#C0C0C0;stroke-miterlimit:4;fill-opacity:50%;">
		<path d="M61.80 46.06L69.24 42.33L69.24 34.87L61.80 31.15L54.35 34.87L54.35 42.33z"/>
	</g>
	<g id="Path_7" style="fill-rule:none;clip-rule:nonzero;fill:none;stroke:#C0C0C0;stroke-miterlimit:4;fill-opacity:50%;">
		<path d="M61.80 55.59L78.89 47.04L78.89 29.96L61.80 21.39L44.71 29.96L44.71 47.04z"/>
	</g>
	<g id="Path_4" style="fill-rule:none;clip-rule:nonzero;fill:none;stroke:#000000;stroke-miterlimit:4;fill-opacity:100%;">
		<path d="M34.68 97.91L34.68 82.22"/>
	</g>
	<g id="Path_5" style="fill-rule:none;clip-rule:nonzero;fill:none;stroke:#000000;stroke-miterlimit:4;fill-opacity:100%;">
		<path d="M42.82 94.06L42.82 77.96"/>
	</g>
	<g id="Path_6" style="fill-rule:none;clip-rule:nonzero;fill:none;stroke:#000000;stroke-miterlimit:4;fill-opacity:100%;">
		<path d="M42.82 86.03L34.68 90.27"/>
	</g>
	<g id="Path_7" style="fill-rule:none;clip-rule:nonzero;fill:none;stroke:#000000;stroke-miterlimit:4;fill-opacity:100%;">
		<path d="M55.54 72.27L46.73 76.92"/>
	</g>
	<g id="Path_8" style="fill-rule:none;clip-rule:nonzero;fill:none;stroke:#000000;stroke-miterlimit:4;fill-opacity:100%;">
		<path d="M51.36 74.95L51.36 90.15"/>
	</g>
	<g id="Path_9" style="fill-rule:none;clip-rule:nonzero;fill:none;stroke:#000000;stroke-miterlimit:4;fill-opacity:100%;">
		<path d="M69.55 80.62L69.55 66.22L64.86 75.49L59.78 71.18L59.78 86.11"/>
	</g>
	<g id="Path_10" style="fill-rule:none;clip-rule:nonzero;fill:none;stroke:#000000;stroke-miterlimit:4;fill-opacity:100%;">
		<path d="M82.37 74.36L74.91 78.08L74.91 63.19"/>
	</g>
	<g id="Path_7" style="fill-rule:none;clip-rule:nonzero;fill:#3862b4;stroke:#000000;stroke-miterlimit:4;fill-opacity:100%;">
		<path d="M71.01 56.44L63.74 50.61L61.31 39.25L63.74 28.56L71.23 22.49L80.28 20.28L89.53 22.94L96.80 28.56L99.44 39.02L96.80 50.61L89.53 56.66L80.28 58.86z"/>
	</g>
	<g id="Path_13" style="fill-rule:nonzero;clip-rule:nonzero;fill:#f8fcf8;stroke:none;stroke-miterlimit:4;fill-opacity:100%;">
		<path d="M71.23 22.49L80.28 20.28L89.53 22.94L79.93 25.35z"/>
	</g>
	<g id="Path_14" style="fill-rule:nonzero;clip-rule:nonzero;fill:#b4b660;stroke:none;stroke-miterlimit:4;fill-opacity:100%;">
		<path d="M68.41 24.76L63.74 28.56L61.31 39.25L62.54 45.03L64.13 41.66L67.19 42.94L69.74 44.47L71.52 40.89L73.80 38.34L74.33 35.54L70.50 34.64L67.19 33.25L67.19 30.44L70.50 28.27z"/>
	</g>
	<g id="Path_15" style="fill-rule:nonzero;clip-rule:nonzero;fill:#b4b660;stroke:none;stroke-miterlimit:4;fill-opacity:100%;">
		<path d="M74.91 49.03L76.10 54.39L76.43 57.84L71.01 56.44L63.74 50.61L62.54 45.03z"/>
	</g>
	<g id="Path_16" style="fill-rule:nonzero;clip-rule:nonzero;fill:#b4b660;stroke:none;stroke-miterlimit:4;fill-opacity:100%;">
		<path d="M78.15 29.94L81.47 27.89L83.23 31.97L80.19 35.04z"/>
	</g>
	<g id="Path_17" style="fill-rule:nonzero;clip-rule:nonzero;fill:#b4b660;stroke:none;stroke-miterlimit:4;fill-opacity:100%;">
		<path d="M94.03 26.41L96.80 28.56L99.44 39.02L98.79 41.9L94.21 40.89L92.17 40.39L91.41 42.94L89.88 40.89L87.08 42.42L87.08 42.42L85.29 40.63L85.78 37.84L87.08 36.04L89.88 36.04L91.41 34.01L90.38 32.23L88.08 32.23L87.33 29.16z"/>
	</g>
	<g id="Path_18" style="fill-rule:nonzero;clip-rule:nonzero;fill:#b4b660;stroke:none;stroke-miterlimit:4;fill-opacity:100%;">
		<path d="M88.08 44.72L91.66 45.48L98.45 43.4L96.80 50.61L89.53 56.66L86.59 57.36L87.83 54.91L85.03 53.88L83.23 50.08L85.78 45.48z"/>
	</g>
	<g id="Path_7" style="fill-rule:none;clip-rule:nonzero;fill:none;stroke:#000000;stroke-miterlimit:4;fill-opacity:100%;">
		<path d="M71.01 56.44L63.74 50.61L61.31 39.25L63.74 28.56L71.23 22.49L80.28 20.28L89.53 22.94L96.80 28.56L99.44 39.02L96.80 50.61L89.53 56.66L80.28 58.86z"/>
	</g>
	<g id="Path_24" style="fill-rule:none;clip-rule:nonzero;fill:none;stroke:#C0C0C0;stroke-miterlimit:4;fill-opacity:50%;">
		<path d="M77.29 19.23L61.80 11.78L35.10 25.26L35.24 51.88L61.80 65.42L73.72 58.86"/>
	</g>
</g>
</svg>