<?xml version="1.0" standalone="no"?>
<!DOCTYPE svg PUBLIC "-//W3C//DTD SVG 20000303 Stylable//EN"
	"http://www.w3.org/TR/2000/03/WD-SVG-20000303/DTD/svg-20000303-stylable.dtd">
<svg width="50pt" height="50pt" viewBox="0 0 50 50" xml:space="preserve">
<g transform="scale(0.5)">
	<g id="Third Sheet of Paper -- Closed" style="fill-rule:none;clip-rule:nonzero;fill:#FFFFFF;stroke:#000000;stroke-miterlimit:4;fill-opacity:100%;">
		<path d="M39.59 88.49L39.59 29.52L77.39 10.08L77.39 69.16z"/>
	</g>
	<g id="Path_0" style="fill-rule:nonzero;clip-rule:nonzero;fill:#C0C0C0;stroke:none;stroke-miterlimit:4;fill-opacity:50%;">
		<path d="M93.00 86.4L98.00 88.9L98.00 93.9L93.00 96.4L88.00 98.9L78.00 98.9L68.00 98.9L63.00 96.4L58.00 93.9L58.00 88.9L63.00 86.4z"/>
	</g>
	<g id="Path_1" style="fill-rule:none;clip-rule:nonzero;fill:#FFFFFF;stroke:#000000;stroke-miterlimit:4;fill-opacity:100%;">
		<path d="M90.00 81.1L95.00 83.6L95.00 88.6L90.00 91.1L85.00 93.6L75.00 93.6L65.00 93.6L60.00 91.1L55.00 88.6L55.00 83.6L60.00 81.1z"/>
	</g>
	<g id="Path_2" style="fill-rule:none;clip-rule:nonzero;fill:#c0461c;stroke:#000000;stroke-miterlimit:4;fill-opacity:100%;">
		<path d="M60.20 68.9L90.20 68.9L90.20 83.9L80.20 88.9L70.20 88.9L60.20 83.9z"/>
	</g>
	<g id="Path_3" style="fill-rule:none;clip-rule:nonzero;fill:#d05454;stroke:#000000;stroke-miterlimit:4;fill-opacity:100%;">
		<path d="M60.20 68.9L70.20 73.9L80.20 73.9L85.20 71.4L90.20 68.9L85.20 66.4L75.20 66.4L65.20 66.4z"/>
	</g>
	<g id="Path_4" style="fill-rule:none;clip-rule:nonzero;fill:#b46238;stroke:#000000;stroke-miterlimit:4;fill-opacity:100%;">
		<path d="M60.20 76.2L55.20 78.7L50.20 76.2L50.20 69.2L55.20 66.4L60.00 69z"/>
	</g>
	<g id="Path_5" style="fill-rule:none;clip-rule:nonzero;fill:#FFFFFF;stroke:#000000;stroke-miterlimit:4;fill-opacity:100%;">
		<path d="M55.20 68.7L60.09 72.41L55.20 76.1L52.60 72.4z"/>
	</g>
	<g id="Path_6" style="fill-rule:nonzero;clip-rule:nonzero;fill:#f8fcf8;stroke:none;stroke-miterlimit:4;fill-opacity:100%;">
		<path d="M70.00 75L70.00 87L67.60 85.8L67.80 73.6z"/>
	</g>
	<g id="Path_7" style="fill-rule:none;clip-rule:nonzero;fill:none;stroke:#000000;stroke-miterlimit:4;fill-opacity:100%;">
		<path d="M73.80 47.6L70.20 51L71.20 55L75.00 55.2L76.40 59L75.20 63.2L70.20 71"/>
	</g>
	<g id="Path_8" style="fill-rule:none;clip-rule:nonzero;fill:none;stroke:#000000;stroke-miterlimit:4;fill-opacity:100%;">
		<path d="M75.80 46.8L72.20 50.2L73.20 54.2L77.00 54.4L78.40 58.2L77.20 62.4L72.20 70.2"/>
	</g>
	<g id="Path_9" style="fill-rule:none;clip-rule:nonzero;fill:none;stroke:#000000;stroke-miterlimit:4;fill-opacity:100%;">
		<path d="M85.60 52.6L82.00 56L83.00 60L85.00 61.6L82.60 65.6L81.20 68.2"/>
	</g>
	<g id="Path_10" style="fill-rule:none;clip-rule:nonzero;fill:none;stroke:#000000;stroke-miterlimit:4;fill-opacity:100%;">
		<path d="M87.40 52.2L83.80 55.6L84.80 59.6L86.60 61.6L85.40 64.6L83.20 68.6"/>
	</g>
	<g id="Path_11" style="fill-rule:none;clip-rule:nonzero;fill:none;stroke:#000000;stroke-miterlimit:4;fill-opacity:100%;">
		<path d="M69.60 25L50.00 35"/>
	</g>
	<g id="Path_12" style="fill-rule:none;clip-rule:nonzero;fill:none;stroke:#000000;stroke-miterlimit:4;fill-opacity:100%;">
		<path d="M69.60 35L55.00 42.5"/>
	</g>
	<g id="Path_13" style="fill-rule:none;clip-rule:nonzero;fill:none;stroke:#000000;stroke-miterlimit:4;fill-opacity:100%;">
		<path d="M69.60 45L50.00 55"/>
	</g>
</g>
</svg>