<?xml version="1.0" standalone="no"?>
<!DOCTYPE svg PUBLIC "-//W3C//DTD SVG 20000303 Stylable//EN"
	"http://www.w3.org/TR/2000/03/WD-SVG-20000303/DTD/svg-20000303-stylable.dtd">
<svg width="50pt" height="50pt" viewBox="0 0 50 50" xml:space="preserve">
<g transform="scale(0.5)">
	<g id="Icon Shadow - Closed" style="fill-rule:nonzero;clip-rule:nonzero;fill:#C0C0C0;stroke:none;stroke-miterlimit:4;fill-opacity:50%;">
		<path d="M50.00 100L10.00 80L50.00 60L90.00 80z"/>
	</g>
	<g id="Icon - Closed" style="fill-rule:none;clip-rule:nonzero;fill:#FFFFFF;stroke:#000000;stroke-miterlimit:4;fill-opacity:100%;">
		<path d="M50.00 90L18.00 74L15.66 72.57L14.00 71L12.00 68.97L10.74 66.51L10.00 64L10.00 60L50.00 40L50.00 44L51.00 47L52.34 49.25L53.54 50.73L55.00 52L58.00 54L90.00 70z"/>
	</g>
	<g id="Disk Shadow" style="fill-rule:nonzero;clip-rule:nonzero;fill:#C0C0C0;stroke:none;stroke-miterlimit:4;fill-opacity:50%;">
		<path d="M75.16 66L76.28 68.72L77.12 74.04L75.30 79.38L71.52 83.26L65.78 86.4L60.18 88.12L53.64 89.44L49.00 90L44.36 89.44L37.86 88.32L32.60 87.4L28.40 85.6L24.34 83.28L21.26 79.4L19.86 74.1L20.42 70.96L21.96 67.04L43.52 61.72L54.30 61.44z"/>
	</g>
	<g id="Shadow in Center of Disk" style="fill-rule:nonzero;clip-rule:nonzero;fill:#a8a8a8;stroke:none;stroke-miterlimit:4;fill-opacity:50%;">
		<path d="M43.24 33.86L41.56 32.74L41.28 31.48L41.98 30.36L42.82 29.38L43.94 28.68L45.90 28.12L48.00 27.84L49.96 27.84L51.50 27.98L54.44 29.38L55.42 30.92L55.42 32.18L54.72 32.74L53.88 33.16L53.88 70L43.24 70z"/>
	</g>
	<g id="Section 1 Shadow" style="fill-rule:none;clip-rule:nonzero;fill:#a8a8a8;stroke:#000000;stroke-miterlimit:4;fill-opacity:50%;">
		<path d="M43.24 33.86L43.24 61.72L30.50 72.64L30.50 43.24z"/>
	</g>
	<g id="Section 1 " style="fill-rule:none;clip-rule:nonzero;fill:#FFFFFF;stroke:#000000;stroke-miterlimit:4;fill-opacity:100%;">
		<path d="M43.24 33.86L30.50 43.24L30.50 72.64L25.88 71.1L22.80 68.72L20.98 65.78L19.72 63.12L19.72 60.32L19.72 34.56L21.12 34L41.28 31.48L41.56 32.74z"/>
	</g>
	<g id="Section 2 Shadow" style="fill-rule:none;clip-rule:nonzero;fill:#a8a8a8;stroke:#000000;stroke-miterlimit:4;fill-opacity:100%;">
		<path d="M41.98 30.36L41.28 31.48L21.12 34L21.12 28.54z"/>
	</g>
	<g id="Section 2" style="fill-rule:none;clip-rule:nonzero;fill:#FFFFFF;stroke:#000000;stroke-miterlimit:4;fill-opacity:100%;">
		<path d="M41.98 30.36L21.12 28.54L23.22 26.02L26.16 24.06L30.50 21.96L35.26 20.56L39.74 24.76L39.74 24.76L43.94 28.68L42.82 29.38z"/>
	</g>
	<g id="Section 3 Shadow Left Side" style="fill-rule:none;clip-rule:nonzero;fill:#a8a8a8;stroke:#000000;stroke-miterlimit:4;fill-opacity:100%;">
		<path d="M45.90 28.12L43.94 28.68L39.74 24.76L39.74 19.86z"/>
	</g>
	<g id="Section 3" style="fill-rule:none;clip-rule:nonzero;fill:#FFFFFF;stroke:#000000;stroke-miterlimit:4;fill-opacity:100%;">
		<path d="M45.90 28.12L39.74 19.86L43.52 18.46L47.58 18.18L51.78 18.18L54.30 18.46L58.08 19.86L51.50 27.98L49.96 27.84L48.00 27.84z"/>
	</g>
	<g id="Section 3 Shadow Right Side" style="fill-rule:nonzero;clip-rule:nonzero;fill:#a8a8a8;stroke:none;stroke-miterlimit:4;fill-opacity:100%;">
		<path d="M51.50 27.98L58.08 19.86L58.08 39.86L52.76 48.68L51.50 47.98z"/>
	</g>
	<g id="Section 4 Shadow" style="fill-rule:none;clip-rule:nonzero;fill:#a8a8a8;stroke:#000000;stroke-miterlimit:4;fill-opacity:100%;">
		<path d="M67.42 13.92L87.58 11.4L87.58 39.4L67.42 41.92L66.14 40.92L64.76 39.92L64.76 11.68L66.44 12.38z"/>
	</g>
	<g id="Section 4" style="fill-rule:none;clip-rule:nonzero;fill:#FFFFFF;stroke:#000000;stroke-miterlimit:4;fill-opacity:100%;">
		<path d="M64.76 11.68L70.08 7.2L74.56 3.84L77.50 4.68000000000001L81.00 6.08L84.08 8.31999999999999L87.58 11.4L67.42 13.92L66.44 12.38z"/>
	</g>
	<g id="Section 5 " style="fill-rule:none;clip-rule:nonzero;fill:#FFFFFF;stroke:#000000;stroke-miterlimit:4;fill-opacity:100%;">
		<path d="M53.88 33.16L54.72 32.74L55.42 32.18L75.58 34.7L77.12 34.84L77.12 60.46L76.00 63.26L73.90 66.34L71.10 69.14L67.74 70.82L64.10 72.78L64.10 43.24z"/>
	</g>
	<g id="Section 5 Shadow" style="fill-rule:none;clip-rule:nonzero;fill:#a8a8a8;stroke:#000000;stroke-miterlimit:4;fill-opacity:100%;">
		<path d="M53.88 33.16L64.10 43.1L64.10 72.5L53.88 61.58z"/>
	</g>
	<g id="Section 6" style="fill-rule:none;clip-rule:nonzero;fill:#FFFFFF;stroke:#000000;stroke-miterlimit:4;fill-opacity:100%;">
		<path d="M52.34 34.14L60.18 45.2L60.18 73.76L56.68 75.02L53.18 75.44L48.70 76L44.22 75.44L40.72 74.88L37.78 73.76L37.78 45.06L44.78 34.56L46.88 34.98L49.68 34.84z"/>
	</g>
	<g id="Disk Platter Lines" style="fill-rule:none;clip-rule:nonzero;fill:none;stroke:#000000;stroke-miterlimit:4;fill-opacity:100%;">
		<path d="M30.50 43.52L27.70 42.54L25.18 40.44"/>
	</g>
	<g id="Path_15" style="fill-rule:none;clip-rule:nonzero;fill:none;stroke:#000000;stroke-miterlimit:4;fill-opacity:100%;">
		<path d="M37.78 45.34L41.56 46.04L45.34 46.32L49.54 46.18L53.04 46.18L57.10 45.76"/>
	</g>
	<g id="Path_16" style="fill-rule:none;clip-rule:nonzero;fill:none;stroke:#000000;stroke-miterlimit:4;fill-opacity:100%;">
		<path d="M64.10 43.52L67.04 42.54L69.70 41.42L72.22 39.88"/>
	</g>
</g>
</svg>