<?xml version="1.0" standalone="no"?>
<!DOCTYPE svg PUBLIC "-//W3C//DTD SVG 20000303 Stylable//EN"
	"http://www.w3.org/TR/2000/03/WD-SVG-20000303/DTD/svg-20000303-stylable.dtd">
<svg width="50pt" height="50pt" viewBox="0 0 50 50" xml:space="preserve">
<g transform="scale(0.5)">
	<g id="Icon Shadow" style="fill-rule:nonzero;clip-rule:nonzero;fill:#C0C0C0;stroke:none;stroke-miterlimit:4;fill-opacity:50%;">
		<path d="M38.83 99.78L22.00 90.88L60.55 71.22L77.82 79.8z"/>
	</g>
	<g id="Paper Sheet 1" style="fill-rule:none;clip-rule:nonzero;fill:#FFFFFF;stroke:#000000;stroke-miterlimit:4;fill-opacity:100%;">
		<path d="M22.00 80.13L22.00 20.5L60.01 1.06999999999999L60.01 60.8z"/>
	</g>
	<g id="Paper Sheet 2" style="fill-rule:none;clip-rule:nonzero;fill:#FFFFFF;stroke:#000000;stroke-miterlimit:4;fill-opacity:100%;">
		<path d="M30.69 84.47L30.69 25.17L68.70 5.41L68.70 65.03z"/>
	</g>
	<g id="Third Sheet of Paper -- Closed" style="fill-rule:none;clip-rule:nonzero;fill:#FFFFFF;stroke:#000000;stroke-miterlimit:4;fill-opacity:100%;">
		<path d="M39.59 88.49L39.59 29.52L77.39 10.08L77.39 69.16z"/>
	</g>
	<g id="Path_0" style="fill-rule:none;clip-rule:nonzero;fill:#505450;stroke:#505450;stroke-miterlimit:4;fill-opacity:100%;">
		<path d="M87.71 40.05L87.93 45L95.83 45.38L95.83 40.77z"/>
	</g>
	<g id="Path_1" style="fill-rule:none;clip-rule:nonzero;fill:#505450;stroke:#505450;stroke-miterlimit:4;fill-opacity:100%;">
		<path d="M82.92 41.52L87.71 40.05L88.64 45.33L82.26 46.84z"/>
	</g>
	<g id="Path_2" style="fill-rule:none;clip-rule:nonzero;fill:#505450;stroke:#505450;stroke-miterlimit:4;fill-opacity:100%;">
		<path d="M70.34 48.27L69.84 53.47L83.00 46.66L82.92 41.52z"/>
	</g>
	<g id="Path_3" style="fill-rule:none;clip-rule:nonzero;fill:#505450;stroke:#505450;stroke-miterlimit:4;fill-opacity:100%;">
		<path d="M70.49 22.65L70.34 48.27L73.72 46.33L73.72 35.79L73.72 21.63z"/>
	</g>
	<g id="Path_4" style="fill-rule:none;clip-rule:nonzero;fill:#505450;stroke:#505450;stroke-miterlimit:4;fill-opacity:100%;">
		<path d="M91.76 14.91L91.86 40.41L95.83 41.35L95.84 17.47z"/>
	</g>
	<g id="Path_5" style="fill-rule:none;clip-rule:nonzero;fill:#505450;stroke:#505450;stroke-miterlimit:4;fill-opacity:100%;">
		<path d="M87.61 12.66L92.29 12.65L95.84 14.37L95.84 18.48L87.20 16.96z"/>
	</g>
	<g id="Path_6" style="fill-rule:none;clip-rule:nonzero;fill:#505450;stroke:#505450;stroke-miterlimit:4;fill-opacity:100%;">
		<path d="M81.81 13.8L83.22 17.93L88.33 17.16L87.61 12.66z"/>
	</g>
	<g id="Path_7" style="fill-rule:none;clip-rule:nonzero;fill:#505450;stroke:#505450;stroke-miterlimit:4;fill-opacity:100%;">
		<path d="M31.29 73.48L31.79 68.23L32.27 67.98L49.87 58.39L62.40 52.2L70.34 48.27L69.84 53.47L32.66 73.28z"/>
	</g>
	<g id="Path_8" style="fill-rule:none;clip-rule:nonzero;fill:#505450;stroke:#505450;stroke-miterlimit:4;fill-opacity:100%;">
		<path d="M27.37 68.83L33.89 68.26L35.25 71.91L26.90 75.22z"/>
	</g>
	<g id="Path_9" style="fill-rule:none;clip-rule:nonzero;fill:#505450;stroke:#505450;stroke-miterlimit:4;fill-opacity:100%;">
		<path d="M22.56 66.26L23.31 73.67L26.90 75.22L27.37 68.83z"/>
	</g>
	<g id="Path_10" style="fill-rule:none;clip-rule:nonzero;fill:#505450;stroke:#505450;stroke-miterlimit:4;fill-opacity:100%;">
		<path d="M30.30 37.11L27.93 37.8L27.68 42.63L30.21 42.63L31.25 42.38L47.15 35.92L70.25 24.43L73.72 22.99L83.22 17.93L81.81 13.8z"/>
	</g>
	<g id="Path_11" style="fill-rule:none;clip-rule:nonzero;fill:#505450;stroke:#505450;stroke-miterlimit:4;fill-opacity:100%;">
		<path d="M21.03 37.3L21.03 73.96L25.06 74.42L25.06 37.6z"/>
	</g>
	<g id="Path_12" style="fill-rule:none;clip-rule:nonzero;fill:#505450;stroke:#505450;stroke-miterlimit:4;fill-opacity:100%;">
		<path d="M23.93 37.51L24.03 42.3L27.68 42.63L27.93 37.8z"/>
	</g>
	<g id="Path_13" style="fill-rule:none;clip-rule:nonzero;fill:#505450;stroke:#505450;stroke-miterlimit:4;fill-opacity:100%;">
		<path d="M40.49 38.63L45.96 60.89L49.65 58.99L49.72 33.63z"/>
	</g>
	<g id="Path_1" style="fill-rule:none;clip-rule:nonzero;fill:#b48c8c;stroke:#000000;stroke-miterlimit:4;fill-opacity:100%;">
		<path d="M33.28 41.9L30.21 42.63L27.68 42.63L24.03 42.3L24.02 67.04L27.37 68.83L31.79 68.23L46.21 60.4L46.21 35.89z"/>
	</g>
	<g id="Path_2" style="fill-rule:none;clip-rule:nonzero;fill:#987098;stroke:#000000;stroke-miterlimit:4;fill-opacity:100%;">
		<path d="M49.72 33.63L49.87 58.39L70.34 48.27L70.25 24.43z"/>
	</g>
	<g id="Path_3" style="fill-rule:none;clip-rule:nonzero;fill:#883888;stroke:#000000;stroke-miterlimit:4;fill-opacity:100%;">
		<path d="M88.33 17.16L81.06 18.76L73.72 22.99L73.72 46.33L81.60 41.92L87.71 40.05L91.86 40.41L91.94 17.79z"/>
	</g>
	<g id="Path_0" style="fill-rule:none;clip-rule:nonzero;fill:none;stroke:#000000;stroke-miterlimit:4;fill-opacity:100%;">
		<path d="M21.03 37.3L21.03 73.96L26.90 75.22L32.66 73.28L82.26 46.84L88.64 45.33L95.83 45.38L95.84 14.37L93.65 12.94L90.65 12.3L87.61 12.66L81.03 13.94L32.37 36.49L27.93 37.8z"/>
	</g>
	<g id="Path_19" style="fill-rule:none;clip-rule:nonzero;fill:#505450;stroke:#505450;stroke-miterlimit:4;fill-opacity:100%;">
		<path d="M25.28 42.41L27.69 42.41L30.21 42.63L33.30 41.68L35.16 40.81L27.85 39.45L31.10 39.29z"/>
	</g>
	<g id="Path_19" style="fill-rule:none;clip-rule:nonzero;fill:none;stroke:#000000;stroke-miterlimit:4;fill-opacity:100%;">
		<path d="M36.01 40.64L33.28 41.9L30.21 42.63L27.68 42.63L25.28 42.41"/>
	</g>
	<g id="Path_0" style="fill-rule:none;clip-rule:nonzero;fill:#505450;stroke:#505450;stroke-miterlimit:4;fill-opacity:100%;">
		<path d="M87.71 40.05L87.93 45L95.83 45.38L95.83 40.77z"/>
	</g>
	<g id="Path_1" style="fill-rule:none;clip-rule:nonzero;fill:#505450;stroke:#505450;stroke-miterlimit:4;fill-opacity:100%;">
		<path d="M82.92 41.52L87.71 40.05L88.64 45.33L82.26 46.84z"/>
	</g>
	<g id="Path_2" style="fill-rule:none;clip-rule:nonzero;fill:#505450;stroke:#505450;stroke-miterlimit:4;fill-opacity:100%;">
		<path d="M70.34 48.27L69.84 53.47L83.00 46.66L82.92 41.52z"/>
	</g>
	<g id="Path_3" style="fill-rule:none;clip-rule:nonzero;fill:#505450;stroke:#505450;stroke-miterlimit:4;fill-opacity:100%;">
		<path d="M70.49 22.65L70.34 48.27L73.72 46.33L73.72 35.79L73.72 21.63z"/>
	</g>
	<g id="Path_4" style="fill-rule:none;clip-rule:nonzero;fill:#505450;stroke:#505450;stroke-miterlimit:4;fill-opacity:100%;">
		<path d="M91.76 14.91L91.86 40.41L95.83 41.35L95.84 17.47z"/>
	</g>
	<g id="Path_5" style="fill-rule:none;clip-rule:nonzero;fill:#505450;stroke:#505450;stroke-miterlimit:4;fill-opacity:100%;">
		<path d="M87.61 12.66L92.29 12.65L95.84 14.37L95.84 18.48L87.20 16.96z"/>
	</g>
	<g id="Path_6" style="fill-rule:none;clip-rule:nonzero;fill:#505450;stroke:#505450;stroke-miterlimit:4;fill-opacity:100%;">
		<path d="M81.81 13.8L83.22 17.93L88.33 17.16L87.61 12.66z"/>
	</g>
	<g id="Path_7" style="fill-rule:none;clip-rule:nonzero;fill:#505450;stroke:#505450;stroke-miterlimit:4;fill-opacity:100%;">
		<path d="M31.29 73.48L31.79 68.23L32.27 67.98L49.87 58.39L62.40 52.2L70.34 48.27L69.84 53.47L32.66 73.28z"/>
	</g>
	<g id="Path_8" style="fill-rule:none;clip-rule:nonzero;fill:#505450;stroke:#505450;stroke-miterlimit:4;fill-opacity:100%;">
		<path d="M27.37 68.83L33.89 68.26L35.25 71.91L26.90 75.22z"/>
	</g>
	<g id="Path_9" style="fill-rule:none;clip-rule:nonzero;fill:#505450;stroke:#505450;stroke-miterlimit:4;fill-opacity:100%;">
		<path d="M22.56 66.26L23.31 73.67L26.90 75.22L27.37 68.83z"/>
	</g>
	<g id="Path_10" style="fill-rule:none;clip-rule:nonzero;fill:#505450;stroke:#505450;stroke-miterlimit:4;fill-opacity:100%;">
		<path d="M30.30 37.11L27.93 37.8L27.68 42.63L30.21 42.63L31.25 42.38L47.15 35.92L70.25 24.43L73.72 22.99L83.22 17.93L81.81 13.8z"/>
	</g>
	<g id="Path_11" style="fill-rule:none;clip-rule:nonzero;fill:#505450;stroke:#505450;stroke-miterlimit:4;fill-opacity:100%;">
		<path d="M21.03 37.3L21.03 73.96L25.06 74.42L25.06 37.6z"/>
	</g>
	<g id="Path_12" style="fill-rule:none;clip-rule:nonzero;fill:#505450;stroke:#505450;stroke-miterlimit:4;fill-opacity:100%;">
		<path d="M23.93 37.51L24.03 42.3L27.68 42.63L27.93 37.8z"/>
	</g>
	<g id="Path_13" style="fill-rule:none;clip-rule:nonzero;fill:#505450;stroke:#505450;stroke-miterlimit:4;fill-opacity:100%;">
		<path d="M40.49 38.63L45.96 60.89L49.65 58.99L49.72 33.63z"/>
	</g>
	<g id="Path_1" style="fill-rule:none;clip-rule:nonzero;fill:#b48c8c;stroke:#000000;stroke-miterlimit:4;fill-opacity:100%;">
		<path d="M33.28 41.9L30.21 42.63L27.68 42.63L24.03 42.3L24.02 67.04L27.37 68.83L31.79 68.23L46.21 60.4L46.21 35.89z"/>
	</g>
	<g id="Path_2" style="fill-rule:none;clip-rule:nonzero;fill:#987098;stroke:#000000;stroke-miterlimit:4;fill-opacity:100%;">
		<path d="M49.72 33.63L49.87 58.39L70.34 48.27L70.25 24.43z"/>
	</g>
	<g id="Path_3" style="fill-rule:none;clip-rule:nonzero;fill:#883888;stroke:#000000;stroke-miterlimit:4;fill-opacity:100%;">
		<path d="M88.33 17.16L81.06 18.76L73.72 22.99L73.72 46.33L81.60 41.92L87.71 40.05L91.86 40.41L91.94 17.79z"/>
	</g>
	<g id="Path_0" style="fill-rule:none;clip-rule:nonzero;fill:none;stroke:#000000;stroke-miterlimit:4;fill-opacity:100%;">
		<path d="M21.03 37.3L21.03 73.96L26.90 75.22L32.66 73.28L82.26 46.84L88.64 45.33L95.83 45.38L95.84 14.37L93.65 12.94L90.65 12.3L87.61 12.66L81.03 13.94L32.37 36.49L27.93 37.8z"/>
	</g>
	<g id="Path_19" style="fill-rule:none;clip-rule:nonzero;fill:#505450;stroke:#505450;stroke-miterlimit:4;fill-opacity:100%;">
		<path d="M25.28 42.41L27.69 42.41L30.21 42.63L33.30 41.68L35.16 40.81L27.85 39.45L31.10 39.29z"/>
	</g>
	<g id="Path_19" style="fill-rule:none;clip-rule:nonzero;fill:none;stroke:#000000;stroke-miterlimit:4;fill-opacity:100%;">
		<path d="M36.01 40.64L33.28 41.9L30.21 42.63L27.68 42.63L25.28 42.41"/>
	</g>
	<g id="lettering" style="fill-rule:none;clip-rule:nonzero;fill:none;stroke:#000000;stroke-miterlimit:4;fill-opacity:100%;">
		<path d="M54.87 70.24L57.70 68.73L59.38 66.76L59.77 64.55L59.70 63.42L58.70 61.82L57.10 61.42L54.76 62.52L54.77 77.41"/>
	</g>
	<g id="Path_6" style="fill-rule:none;clip-rule:nonzero;fill:none;stroke:#000000;stroke-miterlimit:4;fill-opacity:100%;">
		<path d="M51.13 79.03L51.12 64.07L46.73 74.83L43.32 67.82L43.33 83.43"/>
	</g>
	<g id="Path_7" style="fill-rule:none;clip-rule:nonzero;fill:none;stroke:#000000;stroke-miterlimit:4;fill-opacity:100%;">
		<path d="M67.37 71.17L62.43 73.64L62.42 59L66.84 56.8"/>
	</g>
	<g id="Path_8" style="fill-rule:none;clip-rule:nonzero;fill:none;stroke:#000000;stroke-miterlimit:4;fill-opacity:100%;">
		<path d="M66.76 63.32L62.45 65.49"/>
	</g>
	<g id="Path_9" style="fill-rule:none;clip-rule:nonzero;fill:none;stroke:#000000;stroke-miterlimit:4;fill-opacity:100%;">
		<path d="M72.95 61.69L75.16 60.78L75.16 65.97L74.51 67.79L72.95 68.83L71.52 68.96L70.22 68.31L69.71 66.75L69.70 58.35L70.34 55.37L71.90 53.94L73.85 54.46L74.63 56.15"/>
	</g>
</g>
</svg>