<?xml version="1.0" standalone="no"?>
<!DOCTYPE svg PUBLIC "-//W3C//DTD SVG 20000303 Stylable//EN"
	"http://www.w3.org/TR/2000/03/WD-SVG-20000303/DTD/svg-20000303-stylable.dtd">
<svg width="50pt" height="50pt" viewBox="0 0 50 50" xml:space="preserve">
<g transform="scale(0.5)">
	<g id="Script" style="fill-rule:none;clip-rule:nonzero;fill:#FFFFFF;stroke:#000000;stroke-miterlimit:4;fill-opacity:100%;">
		<path d="M50.40 79.7L23.90 66.9L22.50 65.8L21.10 64.8L19.60 63.3L18.60 62.1L17.50 60.5L16.90 58.1L16.90 43.4L53.10 25.9L53.10 40.5L53.60 42.3L54.80 44.1L56.00 45.5L57.30 46.4L58.80 47.4L60.40 48.7L86.50 61.5z"/>
	</g>
	<g id="Text Lines" style="fill-rule:none;clip-rule:nonzero;fill:none;stroke:#000000;stroke-miterlimit:4;fill-opacity:100%;">
		<path d="M25.10 47.5L47.30 37"/>
	</g>
	<g id="Path_2" style="fill-rule:none;clip-rule:nonzero;fill:none;stroke:#000000;stroke-miterlimit:4;fill-opacity:100%;">
		<path d="M28.90 51.6L47.20 42.9"/>
	</g>
	<g id="Path_3" style="fill-rule:none;clip-rule:nonzero;fill:none;stroke:#000000;stroke-miterlimit:4;fill-opacity:100%;">
		<path d="M25.40 59L45.00 49.7"/>
	</g>
	<g id="Path_4" style="fill-rule:none;clip-rule:nonzero;fill:none;stroke:#000000;stroke-miterlimit:4;fill-opacity:100%;">
		<path d="M33.20 61.4L52.80 51.7"/>
	</g>
	<g id="Path_5" style="fill-rule:none;clip-rule:nonzero;fill:none;stroke:#000000;stroke-miterlimit:4;fill-opacity:100%;">
		<path d="M40.30 63.6L58.70 54.7"/>
	</g>
	<g id="Path_6" style="fill-rule:none;clip-rule:nonzero;fill:none;stroke:#000000;stroke-miterlimit:4;fill-opacity:100%;">
		<path d="M46.30 66.8L64.90 57.6"/>
	</g>
	<g id="Path_7" style="fill-rule:none;clip-rule:nonzero;fill:none;stroke:#000000;stroke-miterlimit:4;fill-opacity:100%;">
		<path d="M48.30 71.8L70.80 60.7"/>
	</g>
</g>
</svg>