<?xml version="1.0" standalone="no"?>
<!DOCTYPE svg PUBLIC "-//W3C//DTD SVG 20000303 Stylable//EN"
	"http://www.w3.org/TR/2000/03/WD-SVG-20000303/DTD/svg-20000303-stylable.dtd">
<svg width="50pt" height="50pt" viewBox="0 0 50 50" xml:space="preserve">
<g transform="scale(0.5)">
	<g id="Path_0" style="fill-rule:none;clip-rule:nonzero;fill:#FFFFFF;stroke:#000000;stroke-miterlimit:4;fill-opacity:100%;">
		<path d="M68.42 2.76000000000001L68.42 77.47L24.63 98.97L24.72 24.56z"/>
	</g>
	<g id="Path_28" style="fill-rule:none;clip-rule:nonzero;fill:none;stroke:#000000;stroke-miterlimit:4;fill-opacity:100%;">
		<path d="M71.53 28.55L66.35 13.45L63.58 39.07L59.60 22.19L56.43 38.29L54.44 26.91L51.46 35.8"/>
	</g>
	<g id="Path_28" style="fill-rule:none;clip-rule:nonzero;fill:none;stroke:#000000;stroke-miterlimit:4;fill-opacity:100%;">
		<path d="M27.65 50.21L24.97 55.63L21.47 44.78L20.63 62.98L15.80 51.79L15.13 66.07L10.95 59.8L8.62 68.83"/>
	</g>
	<g id="Path_6" style="fill-rule:none;clip-rule:nonzero;fill:#c07070;stroke:#000000;stroke-miterlimit:4;fill-opacity:100%;">
		<path d="M46.28 26.13L48.41 31.69L48.57 39.37L46.67 48.43L43.21 54.45L37.72 57.28L31.75 56.47L29.68 49.02L29.68 41.48L31.47 33.9L36.45 27.22L41.74 24.88z"/>
	</g>
	<g id="Path_10" style="fill-rule:none;clip-rule:nonzero;fill:#000000;stroke:#000000;stroke-miterlimit:4;fill-opacity:100%;">
		<path d="M42.36 41.66L43.52 35.33L42.77 33.91L42.77 33.91L42.77 33.91z"/>
	</g>
	<g id="Path_9" style="fill-rule:none;clip-rule:nonzero;fill:#000000;stroke:#000000;stroke-miterlimit:4;fill-opacity:100%;">
		<path d="M39.17 31.71L42.34 35.36L42.48 35.2L42.93 36.79L42.76 34.85L42.93 33.28L39.02 29.98z"/>
	</g>
	<g id="Path_17" style="fill-rule:none;clip-rule:nonzero;fill:none;stroke:#000000;stroke-miterlimit:4;fill-opacity:100%;">
		<path d="M39.03 46.91L38.97 45.07L39.02 29.98"/>
	</g>
	<g id="Path_7" style="fill-rule:none;clip-rule:nonzero;fill:#000000;stroke:#000000;stroke-miterlimit:4;fill-opacity:100%;">
		<path d="M36.18 44.65L38.88 46.87L37.08 49.88L34.90 50.35L33.76 48.77L34.51 45.91L36.18 44.65L38.88 46.87L38.97 45.07z"/>
	</g>
	<g id="Path_28" style="fill-rule:none;clip-rule:nonzero;fill:none;stroke:#000000;stroke-miterlimit:4;fill-opacity:100%;">
		<path d="M86.36 47.51L81.18 32.41L78.41 58.04L74.43 41.16L71.26 57.25L69.27 45.87L66.29 54.77"/>
	</g>
	<g id="Path_28" style="fill-rule:none;clip-rule:nonzero;fill:none;stroke:#000000;stroke-miterlimit:4;fill-opacity:100%;">
		<path d="M42.47 69.17L39.80 74.6L36.30 63.75L35.46 81.94L30.62 70.76L29.95 85.04L25.77 78.77L23.44 87.8"/>
	</g>
	<g id="Path_6" style="fill-rule:none;clip-rule:nonzero;fill:#c07070;stroke:#000000;stroke-miterlimit:4;fill-opacity:100%;">
		<path d="M61.11 45.09L63.24 50.65L63.40 58.33L61.50 67.39L58.04 73.41L52.55 76.24L46.58 75.43L44.50 67.99L44.50 60.44L46.30 52.87L51.28 46.18L56.56 43.84z"/>
	</g>
	<g id="Path_10" style="fill-rule:none;clip-rule:nonzero;fill:#000000;stroke:#000000;stroke-miterlimit:4;fill-opacity:100%;">
		<path d="M57.18 60.63L58.35 54.3L57.60 52.88L57.60 52.88L57.60 52.88z"/>
	</g>
	<g id="Path_9" style="fill-rule:none;clip-rule:nonzero;fill:#000000;stroke:#000000;stroke-miterlimit:4;fill-opacity:100%;">
		<path d="M54.00 50.68L57.17 54.32L57.30 54.16L57.76 55.75L57.58 53.81L57.76 52.25L53.84 48.94z"/>
	</g>
	<g id="Path_17" style="fill-rule:none;clip-rule:nonzero;fill:none;stroke:#000000;stroke-miterlimit:4;fill-opacity:100%;">
		<path d="M53.86 65.87L53.80 64.04L53.84 48.94"/>
	</g>
	<g id="Path_7" style="fill-rule:none;clip-rule:nonzero;fill:#000000;stroke:#000000;stroke-miterlimit:4;fill-opacity:100%;">
		<path d="M51.00 63.61L53.71 65.84L51.91 68.85L49.73 69.32L48.59 67.73L49.34 64.88L51.00 63.61L53.71 65.84L53.80 64.04z"/>
	</g>
</g>
</svg>