<?xml version="1.0" standalone="no"?>
<!DOCTYPE svg PUBLIC "-//W3C//DTD SVG 20000303 Stylable//EN"
	"http://www.w3.org/TR/2000/03/WD-SVG-20000303/DTD/svg-20000303-stylable.dtd">
<svg width="50pt" height="50pt" viewBox="0 0 50 50" xml:space="preserve">
<g transform="scale(0.5)">
	<g id="Path_0" style="fill-rule:none;clip-rule:nonzero;fill:#00007c;stroke:#000000;stroke-miterlimit:4;">
		<path d="M2.29 26.51L4.49 21.73L20.44 21.73L22.92 27L22.92 41.16L16.04 46.04L16.04 31.39L9.16 31.39L9.16 50.92L2.29 55.81z"/>
	</g>
	<g id="Path_1" style="fill-rule:none;clip-rule:nonzero;fill:#dcb638;stroke:#000000;stroke-miterlimit:4;">
		<path d="M2.29 80.22L22.92 60.69L22.92 41.16L16.04 46.04L16.04 55.81L9.02 60.3L9.16 50.92L2.29 55.81z"/>
	</g>
	<g id="Path_2" style="fill-rule:none;clip-rule:nonzero;fill:#00007c;stroke:#000000;stroke-miterlimit:4;">
		<path d="M27.87 21.74L44.50 21.74L47.12 26.81L47.12 58.06L39.97 52.01L39.97 31.5L31.72 31.5L31.72 46.73L24.43 40.29L24.43 26.23z"/>
	</g>
	<g id="Path_3" style="fill-rule:none;clip-rule:nonzero;fill:#dcb638;stroke:#000000;stroke-miterlimit:4;">
		<path d="M31.72 47.13L31.72 53.96L39.97 58.26L39.97 51.62L47.12 57.87L47.12 60.6L35.70 70.56L24.43 58.45L24.43 40.09z"/>
	</g>
	<g id="Path_4" style="fill-rule:none;clip-rule:nonzero;fill:#00007c;stroke:#000000;stroke-miterlimit:4;">
		<path d="M55.00 52.34L54.91 31.11L63.00 31.14L63.00 48.94L71.05 41.27L71.05 26.81L67.06 21.74L51.83 21.74L48.20 27.2L48.20 58.26z"/>
	</g>
	<g id="Path_5" style="fill-rule:none;clip-rule:nonzero;fill:#dcb638;stroke:#000000;stroke-miterlimit:4;">
		<path d="M54.80 52.14L54.73 58.26L62.80 53.74L62.80 47.74L71.00 39.94L71.05 58.65L59.20 70.34L48.00 60.74L47.98 58.43z"/>
	</g>
	<g id="Path_6" style="fill-rule:none;clip-rule:nonzero;fill:#00007c;stroke:#000000;stroke-miterlimit:4;">
		<path d="M77.32 43.41L77.32 39.31L78.31 44L90.86 49.66L92.01 44.98L91.52 50.05L97.53 53.57L97.53 21.74L88.71 21.74L84.58 31.7L79.80 21.54L72.20 21.54L72.04 41.46z"/>
	</g>
	<g id="Path_7" style="fill-rule:none;clip-rule:nonzero;fill:#dcb638;stroke:#000000;stroke-miterlimit:4;">
		<path d="M77.32 43.6L77.26 62.93L71.87 58.44L71.87 40.47z"/>
	</g>
	<g id="Path_8" style="fill-rule:none;clip-rule:nonzero;fill:#dcb638;stroke:#000000;stroke-miterlimit:4;">
		<path d="M90.86 49.46L83.92 64.11L78.42 43.9z"/>
	</g>
	<g id="Path_9" style="fill-rule:none;clip-rule:nonzero;fill:#dcb638;stroke:#000000;stroke-miterlimit:4;">
		<path d="M97.53 53.75L97.53 78.95L91.60 71.54L91.65 50.04z"/>
	</g>
</g>
</svg>