<?xml version="1.0" standalone="no"?>
<!DOCTYPE svg PUBLIC "-//W3C//DTD SVG 20000303 Stylable//EN"
	"http://www.w3.org/TR/2000/03/WD-SVG-20000303/DTD/svg-20000303-stylable.dtd">
<svg width="50pt" height="50pt" viewBox="0 0 50 50" xml:space="preserve">
<g transform="scale(0.5)">
	<g id="Dirview Window Background" style="fill-rule:none;clip-rule:nonzero;fill:#388c88;stroke:#000000;stroke-miterlimit:4;">
		<path d="M39.80 77.1L39.80 22.1L84.80 -0.400000000000006L84.80 54.6z"/>
	</g>
	<g id="Tiny Little Icons in Tiny Little Dirview" style="fill-rule:none;clip-rule:nonzero;fill:#FFFFFF;stroke:#000000;stroke-miterlimit:4;fill-opacity:100%;">
		<path d="M47.40 57L47.40 42L57.40 37L57.40 52z"/>
	</g>
	<g id="Path_2" style="fill-rule:none;clip-rule:nonzero;fill:#FFFFFF;stroke:#000000;stroke-miterlimit:4;fill-opacity:100%;">
		<path d="M68.20 45.8L68.20 35.8L78.20 30.8L78.20 40.8z"/>
	</g>
	<g id="Path_3" style="fill-rule:none;clip-rule:nonzero;fill:#FFFFFF;stroke:#000000;stroke-miterlimit:4;fill-opacity:100%;">
		<path d="M62.80 33.1L53.20 28.3L51.40 26.5L50.80 24.1L62.80 18.1L63.40 20.5L65.20 22.3L74.80 27.1z"/>
	</g>
	<g id="Path_4" style="fill-rule:none;clip-rule:nonzero;fill:#FFFFFF;stroke:#000000;stroke-miterlimit:4;fill-opacity:100%;">
		<path d="M34.80 24.6L39.80 22.1L39.80 77.1L34.80 79.6z"/>
	</g>
	<g id="Path_5" style="fill-rule:none;clip-rule:nonzero;fill:#FFFFFF;stroke:#000000;stroke-miterlimit:4;fill-opacity:100%;">
		<path d="M34.80 35.3L34.80 30.3L39.80 27.8L39.80 32.8z"/>
	</g>
	<g id="Path_6" style="fill-rule:none;clip-rule:nonzero;fill:#FFFFFF;stroke:#000000;stroke-miterlimit:4;fill-opacity:100%;">
		<path d="M34.80 44.9L34.80 39.9L39.80 37.4L39.80 42.4z"/>
	</g>
	<g id="Path_7" style="fill-rule:none;clip-rule:nonzero;fill:#FFFFFF;stroke:#000000;stroke-miterlimit:4;fill-opacity:100%;">
		<path d="M34.80 77.9L34.80 64.1L39.80 61.6L39.80 75.4z"/>
	</g>
	<g id="Path_8" style="fill-rule:none;clip-rule:nonzero;fill:#38b6dc;stroke:#000000;stroke-miterlimit:4;fill-opacity:100%;">
		<path d="M39.80 66.7L39.80 77.1L84.80 54.6L84.80 44.2z"/>
	</g>
</g>
</svg>