<?xml version="1.0" standalone="no"?>
<!DOCTYPE svg PUBLIC "-//W3C//DTD SVG 20000303 Stylable//EN"
	"http://www.w3.org/TR/2000/03/WD-SVG-20000303/DTD/svg-20000303-stylable.dtd">
<svg width="50pt" height="50pt" viewBox="0 0 50 50" xml:space="preserve">
<g transform="scale(0.5)">
	<g id="Icon Shadow" style="fill-rule:nonzero;clip-rule:nonzero;fill:#C0C0C0;stroke:none;stroke-miterlimit:4;fill-opacity:50%;">
		<path d="M38.83 99.78L22.00 90.88L60.55 71.22L77.82 79.8z"/>
	</g>
	<g id="Paper Sheet 1" style="fill-rule:none;clip-rule:nonzero;fill:#FFFFFF;stroke:#000000;stroke-miterlimit:4;fill-opacity:100%;">
		<path d="M22.00 80.13L22.00 20.5L60.01 1.06999999999999L60.01 60.8z"/>
	</g>
	<g id="Paper Sheet 2" style="fill-rule:none;clip-rule:nonzero;fill:#FFFFFF;stroke:#000000;stroke-miterlimit:4;fill-opacity:100%;">
		<path d="M30.69 84.47L30.69 25.17L68.70 5.41L68.70 65.03z"/>
	</g>
	<g id="Third Sheet of Paper -- Closed" style="fill-rule:none;clip-rule:nonzero;fill:#7070c0;stroke:#000000;stroke-miterlimit:4;fill-opacity:100%;">
		<path d="M39.59 88.49L39.59 29.52L77.39 10.08L77.39 69.16z"/>
	</g>
	<g id="Path_3" style="fill-rule:none;clip-rule:nonzero;fill:#d0d2d0;stroke:#000000;stroke-miterlimit:4;fill-opacity:100%;">
		<path d="M62.99 58.83L62.99 48.03L77.39 40.83L77.39 51.63z"/>
	</g>
	<g id="Connecting Lines" style="fill-rule:none;clip-rule:nonzero;fill:none;stroke:#000000;stroke-miterlimit:4;fill-opacity:100%;">
		<path d="M64.35 38.74L50.16 59.12"/>
	</g>
	<g id="Path_5" style="fill-rule:none;clip-rule:nonzero;fill:none;stroke:#000000;stroke-miterlimit:4;fill-opacity:100%;">
		<path d="M64.35 38.74L68.19 45.43"/>
	</g>
	<g id="Path_10" style="fill-rule:nonzero;clip-rule:nonzero;fill:#f80000;stroke:none;stroke-miterlimit:4;fill-opacity:100%;">
		<path d="M70.51 51.36L68.97 49.25L69.36 46.34L70.98 42.28L79.31 49.81L79.97 51.96L75.51 53.86z"/>
	</g>
	<g id="Path_11" style="fill-rule:nonzero;clip-rule:nonzero;fill:#f87e7c;stroke:none;stroke-miterlimit:4;fill-opacity:100%;">
		<path d="M76.43 92.22L77.75 93.04L77.75 93.04L82.88 95.44L84.89 95.68L87.34 94.12L88.48 92.01L88.41 88.66L87.34 87.17L82.21 84.78L79.49 84.86L77.67 86.18L76.43 89.08z"/>
	</g>
	<g id="Path_12" style="fill-rule:none;clip-rule:nonzero;fill:none;stroke:#000000;stroke-miterlimit:4;fill-opacity:100%;">
		<path d="M82.88 95.44L77.75 93.04L76.43 92.22L76.43 89.08L77.67 86.18L79.49 84.86L82.21 84.78L87.34 87.17"/>
	</g>
	<g id="Path_13" style="fill-rule:none;clip-rule:nonzero;fill:#f80000;stroke:#000000;stroke-miterlimit:4;fill-opacity:100%;">
		<path d="M82.79 88.58L84.61 87.26L87.34 87.17L88.41 88.66L88.48 92.01L87.34 94.12L84.89 95.68L82.88 95.44L81.55 94.61L81.55 91.47z"/>
	</g>
	<g id="Path_14" style="fill-rule:nonzero;clip-rule:nonzero;fill:#f80000;stroke:none;stroke-miterlimit:4;fill-opacity:100%;">
		<path d="M75.67 80.81L75.59 65.33L79.58 57.21L87.65 65.56L88.35 79.39L81.21 83.62z"/>
	</g>
	<g id="Path_15" style="fill-rule:nonzero;clip-rule:nonzero;fill:#f80000;stroke:none;stroke-miterlimit:4;fill-opacity:100%;">
		<path d="M79.58 57.21L88.81 61.55L87.65 65.56z"/>
	</g>
	<g id="Path_16" style="fill-rule:nonzero;clip-rule:nonzero;fill:#f80000;stroke:none;stroke-miterlimit:4;fill-opacity:100%;">
		<path d="M85.39 50.04L91.05 58.66L88.81 61.55L79.58 57.21z"/>
	</g>
	<g id="Path_17" style="fill-rule:nonzero;clip-rule:nonzero;fill:#f80000;stroke:none;stroke-miterlimit:4;fill-opacity:100%;">
		<path d="M87.10 46.79L97.72 41.29L97.75 46.17L95.67 52.87L93.39 56.65L91.05 58.66L85.39 50.04z"/>
	</g>
	<g id="Path_18" style="fill-rule:nonzero;clip-rule:nonzero;fill:#f80000;stroke:none;stroke-miterlimit:4;fill-opacity:100%;">
		<path d="M97.72 41.29L96.44 37.99L87.36 44.8L87.10 46.79z"/>
	</g>
	<g id="Path_19" style="fill-rule:nonzero;clip-rule:nonzero;fill:#f80000;stroke:none;stroke-miterlimit:4;fill-opacity:100%;">
		<path d="M96.44 37.99L87.53 33.84L87.11 42.64L87.36 44.8z"/>
	</g>
	<g id="Path_20" style="fill-rule:nonzero;clip-rule:nonzero;fill:#f80000;stroke:none;stroke-miterlimit:4;fill-opacity:100%;">
		<path d="M87.53 33.84L82.43 33.99L78.87 35.18L74.92 37.55L85.65 43.08L87.11 42.64z"/>
	</g>
	<g id="Path_21" style="fill-rule:nonzero;clip-rule:nonzero;fill:#f80000;stroke:none;stroke-miterlimit:4;fill-opacity:100%;">
		<path d="M74.92 37.55L70.98 42.28L82.68 45.16L85.65 43.08z"/>
	</g>
	<g id="Path_22" style="fill-rule:nonzero;clip-rule:nonzero;fill:#f80000;stroke:none;stroke-miterlimit:4;fill-opacity:100%;">
		<path d="M70.98 42.28L82.68 45.16L80.55 47.76z"/>
	</g>
	<g id="Path_23" style="fill-rule:nonzero;clip-rule:nonzero;fill:#f80000;stroke:none;stroke-miterlimit:4;fill-opacity:100%;">
		<path d="M80.55 47.76L70.98 42.28L79.31 49.81z"/>
	</g>
	<g id="Path_24" style="fill-rule:nonzero;clip-rule:nonzero;fill:#f87e7c;stroke:none;stroke-miterlimit:4;fill-opacity:100%;">
		<path d="M73.97 51.75L68.97 49.25L70.51 51.36L75.51 53.86z"/>
	</g>
	<g id="Path_25" style="fill-rule:nonzero;clip-rule:nonzero;fill:#f87e7c;stroke:none;stroke-miterlimit:4;fill-opacity:100%;">
		<path d="M73.97 51.75L74.93 48.59L69.36 46.34L68.97 49.25z"/>
	</g>
	<g id="Path_26" style="fill-rule:nonzero;clip-rule:nonzero;fill:#f87e7c;stroke:none;stroke-miterlimit:4;fill-opacity:100%;">
		<path d="M69.36 46.34L74.93 48.59L76.36 45.59L70.98 42.28z"/>
	</g>
	<g id="Path_27" style="fill-rule:nonzero;clip-rule:nonzero;fill:#f87e7c;stroke:none;stroke-miterlimit:4;fill-opacity:100%;">
		<path d="M76.36 45.59L81.20 39.87L74.92 37.55L70.98 42.28z"/>
	</g>
	<g id="Path_28" style="fill-rule:nonzero;clip-rule:nonzero;fill:#f87e7c;stroke:none;stroke-miterlimit:4;fill-opacity:100%;">
		<path d="M78.87 35.18L85.15 37.5L81.20 39.87L74.92 37.55z"/>
	</g>
	<g id="Path_29" style="fill-rule:nonzero;clip-rule:nonzero;fill:#f87e7c;stroke:none;stroke-miterlimit:4;fill-opacity:100%;">
		<path d="M82.43 33.99L88.70 36.31L85.15 37.5L78.87 35.18z"/>
	</g>
	<g id="Path_30" style="fill-rule:nonzero;clip-rule:nonzero;fill:#f87e7c;stroke:none;stroke-miterlimit:4;fill-opacity:100%;">
		<path d="M87.53 33.84L92.53 36.34L88.70 36.31L82.43 33.99z"/>
	</g>
	<g id="Path_26" style="fill-rule:none;clip-rule:nonzero;fill:none;stroke:#000000;stroke-miterlimit:4;fill-opacity:100%;">
		<path d="M96.44 37.99L87.53 33.84L82.43 33.99L78.87 35.18L74.92 37.55L70.98 42.28L69.36 46.34L68.97 49.25L70.51 51.36L75.51 53.86"/>
	</g>
	<g id="Path_32" style="fill-rule:nonzero;clip-rule:nonzero;fill:#f87e7c;stroke:none;stroke-miterlimit:4;fill-opacity:100%;">
		<path d="M79.58 57.21L84.58 59.71L90.39 52.54L85.39 50.04z"/>
	</g>
	<g id="Path_33" style="fill-rule:nonzero;clip-rule:nonzero;fill:#f87e7c;stroke:none;stroke-miterlimit:4;fill-opacity:100%;">
		<path d="M75.59 65.33L81.19 67.54L84.58 59.71L79.58 57.21z"/>
	</g>
	<g id="Path_34" style="fill-rule:nonzero;clip-rule:nonzero;fill:#f87e7c;stroke:none;stroke-miterlimit:4;fill-opacity:100%;">
		<path d="M87.10 46.79L92.10 49.29L90.39 52.54L85.39 50.04z"/>
	</g>
	<g id="Path_35" style="fill-rule:nonzero;clip-rule:nonzero;fill:#f87e7c;stroke:none;stroke-miterlimit:4;fill-opacity:100%;">
		<path d="M75.67 80.81L81.21 83.62L81.19 67.54L75.59 65.33z"/>
	</g>
	<g id="Path_36" style="fill-rule:nonzero;clip-rule:nonzero;fill:#f87e7c;stroke:none;stroke-miterlimit:4;fill-opacity:100%;">
		<path d="M87.10 46.79L87.36 44.8L88.76 42.14L91.04 43.21L92.24 44.8L92.30 46L92.36 47.3L92.10 49.29z"/>
	</g>
	<g id="Path_37" style="fill-rule:nonzero;clip-rule:nonzero;fill:#f87e7c;stroke:none;stroke-miterlimit:4;fill-opacity:100%;">
		<path d="M88.76 42.14L87.11 42.64L87.36 44.8z"/>
	</g>
	<g id="Path_25" style="fill-rule:none;clip-rule:nonzero;fill:none;stroke:#000000;stroke-miterlimit:4;fill-opacity:100%;">
		<path d="M81.21 83.62L88.35 79.39L87.65 65.56L88.81 61.55L91.05 58.66L93.39 56.65L95.67 52.87L97.75 46.17L97.72 41.29L96.44 37.99L92.53 36.34L88.70 36.31L85.15 37.5L81.20 39.87L76.36 45.59L74.93 48.59L73.97 51.75L75.51 53.86L79.97 51.96L79.31 49.81L80.55 47.76L82.68 45.16L85.65 43.08L88.76 42.14L91.04 43.21L92.24 44.8L92.36 47.3L92.10 49.29L90.39 52.54L84.58 59.71L81.19 67.54z"/>
	</g>
	<g id="Path_24" style="fill-rule:none;clip-rule:nonzero;fill:none;stroke:#000000;stroke-miterlimit:4;fill-opacity:100%;">
		<path d="M87.11 42.64L87.36 44.8L87.10 46.79L85.39 50.04L79.58 57.21L75.59 65.33L75.67 80.81L81.21 83.62"/>
	</g>
	<g id="Path_3" style="fill-rule:none;clip-rule:nonzero;fill:#d0d2d0;stroke:#000000;stroke-miterlimit:4;fill-opacity:100%;">
		<path d="M58.41 41.49L58.41 30.69L72.81 23.49L72.81 34.29z"/>
	</g>
	<g id="Path_3" style="fill-rule:none;clip-rule:nonzero;fill:#d0d2d0;stroke:#000000;stroke-miterlimit:4;fill-opacity:100%;">
		<path d="M43.06 72.18L43.06 61.39L57.46 54.19L57.46 64.98z"/>
	</g>
</g>
</svg>