<?xml version="1.0" standalone="no"?>
<!DOCTYPE svg PUBLIC "-//W3C//DTD SVG 20000303 Stylable//EN"
	"http://www.w3.org/TR/2000/03/WD-SVG-20000303/DTD/svg-20000303-stylable.dtd">
<svg width="50pt" height="50pt" viewBox="0 0 50 50" xml:space="preserve">
<g transform="scale(0.5)">
	<g id="Path_7" style="fill-rule:none;clip-rule:nonzero;fill:#000000;stroke:#000000;stroke-miterlimit:4;">
		<path d="M26.15 21.85L28.15 22.95L30.48 24.3L32.36 25.86L35.55 24.46L32.68 22.36L28.70 19.62L26.15 16.54z"/>
	</g>
	<g id="Path_26" style="fill-rule:none;clip-rule:nonzero;fill:none;stroke:#000000;stroke-miterlimit:4;fill-opacity:100%;">
		<path d="M25.88 45.45L25.86 16.48"/>
	</g>
	<g id="Circle" style="fill-rule:none;clip-rule:nonzero;fill:#000000;stroke:#000000;stroke-miterlimit:4;fill-opacity:100%;">
		<path d="M22.20 41.4L24.65 41.4L25.73 43.21L25.80 45.66L24.50 48.33L23.05 49.69L21.76 50.73L19.90 51.31L17.83 51.14L16.63 49.67L16.53 46.75L17.69 44.51L19.54 42.6z"/>
	</g>
	<g id="Path_34" style="fill-rule:none;clip-rule:nonzero;fill:#000000;stroke:#000000;stroke-miterlimit:4;fill-opacity:100%;">
		<path d="M32.24 25.91L32.64 29.25L31.63 36.25L33.65 35.24L35.77 29.33L35.43 24.52z"/>
	</g>
	<g id="Path_2" style="fill-rule:none;clip-rule:nonzero;fill:#FFFFFF;stroke:#000000;stroke-miterlimit:4;fill-opacity:100%;">
		<path d="M40.63 24.63L89.15 0.370000000000005L89.15 54.28L40.63 78.54z"/>
	</g>
	<g id="Path_15" style="fill-rule:none;clip-rule:nonzero;fill:none;stroke:#00fc00;stroke-miterlimit:4;fill-opacity:100%;">
		<path d="M54.69 38.7L54.69 61.8"/>
	</g>
	<g id="Path_16" style="fill-rule:none;clip-rule:nonzero;fill:none;stroke:#f80000;stroke-miterlimit:4;fill-opacity:100%;">
		<path d="M54.69 30.88L54.69 38.7"/>
	</g>
	<g id="Path_8" style="fill-rule:none;clip-rule:nonzero;fill:#505450;stroke:#000000;stroke-miterlimit:4;fill-opacity:100%;">
		<path d="M51.61 63.04L51.61 30.7L48.04 32.48L48.04 64.83z"/>
	</g>
	<g id="Path_8" style="fill-rule:none;clip-rule:nonzero;fill:#505450;stroke:#000000;stroke-miterlimit:4;fill-opacity:100%;">
		<path d="M61.05 58.57L61.05 26.22L57.48 28L57.48 60.35z"/>
	</g>
	<g id="Path_8" style="fill-rule:none;clip-rule:nonzero;fill:#505450;stroke:#000000;stroke-miterlimit:4;fill-opacity:100%;">
		<path d="M72.57 52.57L72.57 20.22L69.00 22L69.00 54.35z"/>
	</g>
	<g id="Path_8" style="fill-rule:none;clip-rule:nonzero;fill:#505450;stroke:#000000;stroke-miterlimit:4;fill-opacity:100%;">
		<path d="M82.91 47.03L82.91 14.68L79.34 16.47L79.34 48.82z"/>
	</g>
	<g id="Path_8" style="fill-rule:none;clip-rule:nonzero;fill:#f8fcf8;stroke:#000000;stroke-miterlimit:4;fill-opacity:100%;">
		<path d="M52.41 53.14L52.41 42.36L47.02 45.05L47.02 55.84z"/>
	</g>
	<g id="Path_8" style="fill-rule:none;clip-rule:nonzero;fill:#f8fcf8;stroke:#000000;stroke-miterlimit:4;fill-opacity:100%;">
		<path d="M62.02 48.17L62.02 37.38L56.63 40.08L56.63 50.86z"/>
	</g>
	<g id="Path_8" style="fill-rule:none;clip-rule:nonzero;fill:#f8fcf8;stroke:#000000;stroke-miterlimit:4;fill-opacity:100%;">
		<path d="M83.97 37.26L83.97 26.47L78.58 29.17L78.58 39.95z"/>
	</g>
	<g id="Path_8" style="fill-rule:none;clip-rule:nonzero;fill:#f8fcf8;stroke:#000000;stroke-miterlimit:4;fill-opacity:100%;">
		<path d="M73.68 42.4L73.68 31.62L68.29 34.31L68.29 45.1z"/>
	</g>
</g>
</svg>