<?xml version="1.0" standalone="no"?>
<!DOCTYPE svg PUBLIC "-//W3C//DTD SVG 20000303 Stylable//EN"
	"http://www.w3.org/TR/2000/03/WD-SVG-20000303/DTD/svg-20000303-stylable.dtd">
<svg width="50pt" height="50pt" viewBox="0 0 50 50" xml:space="preserve">
<g transform="scale(0.5)">
	<g id="Path_3" style="fill-rule:nonzero;clip-rule:nonzero;fill:#FFFFFF;stroke:none;stroke-miterlimit:4;fill-opacity:100%;">
		<path d="M42.50 58.75L42.50 68.75L95.00 42.5L95.00 32.5z"/>
	</g>
	<g id="Path_0" style="fill-rule:nonzero;clip-rule:nonzero;fill:#5454d0;stroke:none;stroke-miterlimit:4;fill-opacity:100%;">
		<path d="M42.50 31.25L42.50 43.75L95.00 17.5L95.00 5z"/>
	</g>
	<g id="Path_1" style="fill-rule:nonzero;clip-rule:nonzero;fill:#007ef8;stroke:none;stroke-miterlimit:4;fill-opacity:100%;">
		<path d="M42.50 43.75L42.50 58.75L95.00 32.5L95.00 17.5z"/>
	</g>
	<g id="Path_2" style="fill-rule:nonzero;clip-rule:nonzero;fill:#5454d0;stroke:none;stroke-miterlimit:4;fill-opacity:100%;">
		<path d="M42.50 63.75L42.50 66.25L95.00 40L95.00 37.5z"/>
	</g>
	<g id="Path_3" style="fill-rule:nonzero;clip-rule:nonzero;fill:#5454d0;stroke:none;stroke-miterlimit:4;fill-opacity:100%;">
		<path d="M42.50 68.75L42.50 81.25L95.00 55L95.00 42.5z"/>
	</g>
	<g id="Path_5" style="fill-rule:nonzero;clip-rule:nonzero;fill:#000000;stroke:none;stroke-miterlimit:4;fill-opacity:100%;">
		<path d="M76.65 28.25L85.00 20L77.95 22.55L71.32 26.58L66.32 34.58z"/>
	</g>
	<g id="Path_6" style="fill-rule:nonzero;clip-rule:nonzero;fill:#000000;stroke:none;stroke-miterlimit:4;fill-opacity:100%;">
		<path d="M73.45 34.64L76.65 28.25L66.32 34.58L65.00 42.5z"/>
	</g>
	<g id="Path_7" style="fill-rule:nonzero;clip-rule:nonzero;fill:#000000;stroke:none;stroke-miterlimit:4;fill-opacity:100%;">
		<path d="M72.50 41.25L73.45 34.64L65.00 42.5z"/>
	</g>
	<g id="Path_8" style="fill-rule:nonzero;clip-rule:nonzero;fill:#000000;stroke:none;stroke-miterlimit:4;fill-opacity:100%;">
		<path d="M61.82 50.83L71.82 45.83L72.50 41.25L65.00 42.5L59.98 43.75L53.98 48.25z"/>
	</g>
	<g id="Path_9" style="fill-rule:nonzero;clip-rule:nonzero;fill:#000000;stroke:none;stroke-miterlimit:4;fill-opacity:100%;">
		<path d="M55.58 57.25L61.82 50.83L53.98 48.25L49.01 58.73z"/>
	</g>
	<g id="Path_10" style="fill-rule:nonzero;clip-rule:nonzero;fill:#000000;stroke:none;stroke-miterlimit:4;fill-opacity:100%;">
		<path d="M55.58 57.25L49.01 58.73L47.98 70.25z"/>
	</g>
	<g id="Path_11" style="fill-rule:none;clip-rule:nonzero;fill:none;stroke:#000000;stroke-miterlimit:4;fill-opacity:100%;">
		<path d="M47.98 70.25L55.58 57.25L61.82 50.83L71.82 45.83L72.50 41.25L73.45 34.64L76.65 28.25L85.00 20L77.95 22.55L71.32 26.58L66.32 34.58L65.00 42.5L59.98 43.75L53.98 48.25L49.01 58.73z"/>
	</g>
	<g id="Path_12" style="fill-rule:nonzero;clip-rule:nonzero;fill:#000000;stroke:none;stroke-miterlimit:4;fill-opacity:100%;">
		<path d="M81.98 5.42L90.00 0L82.50 1.25L75.82 4.83L72.50 8.75z"/>
	</g>
	<g id="Path_13" style="fill-rule:nonzero;clip-rule:nonzero;fill:#000000;stroke:none;stroke-miterlimit:4;fill-opacity:100%;">
		<path d="M78.59 9.5L81.98 5.42L72.50 8.75z"/>
	</g>
	<g id="Path_14" style="fill-rule:nonzero;clip-rule:nonzero;fill:#000000;stroke:none;stroke-miterlimit:4;fill-opacity:100%;">
		<path d="M77.75 13.23L78.59 9.5L72.50 8.75L71.70 13.24z"/>
	</g>
	<g id="Path_15" style="fill-rule:nonzero;clip-rule:nonzero;fill:#000000;stroke:none;stroke-miterlimit:4;fill-opacity:100%;">
		<path d="M67.50 21.25L77.50 16.25L77.75 13.23L71.70 13.24L65.00 17.5L61.84 22.2z"/>
	</g>
	<g id="Path_16" style="fill-rule:nonzero;clip-rule:nonzero;fill:#000000;stroke:none;stroke-miterlimit:4;fill-opacity:100%;">
		<path d="M64.05 26.89L67.50 21.25L61.84 22.2L60.09 27.46z"/>
	</g>
	<g id="Path_17" style="fill-rule:nonzero;clip-rule:nonzero;fill:#000000;stroke:none;stroke-miterlimit:4;fill-opacity:100%;">
		<path d="M64.05 26.89L60.09 27.46L60.99 34.51z"/>
	</g>
	<g id="Path_18" style="fill-rule:none;clip-rule:nonzero;fill:none;stroke:#000000;stroke-miterlimit:4;fill-opacity:100%;">
		<path d="M60.99 34.51L64.05 26.89L67.50 21.25L77.50 16.25L77.75 13.23L78.59 9.5L81.98 5.42L90.00 0L82.50 1.25L75.82 4.83L72.50 8.75L71.70 13.24L65.00 17.5L61.84 22.2L60.09 27.46z"/>
	</g>
</g>
</svg>