<?xml version="1.0" standalone="no"?>
<!DOCTYPE svg PUBLIC "-//W3C//DTD SVG 20000303 Stylable//EN"
	"http://www.w3.org/TR/2000/03/WD-SVG-20000303/DTD/svg-20000303-stylable.dtd">
<svg width="50pt" height="50pt" viewBox="0 0 50 50" xml:space="preserve">
<g transform="scale(0.5)">
	<g id="Path_8" style="fill-rule:none;clip-rule:nonzero;fill:#60b638;stroke:#000000;stroke-miterlimit:4;">
		<path d="M70.21 61.92L75.80 81.8L67.80 89L56.00 90.6L41.80 88L30.04 82.15L18.98 53L21.13 45.46L60.40 39.2L71.41 48.25L79.44 55.61L76.82 40.53L87.13 37.46L89.59 56.84L89.90 64.38L85.44 69.15L76.52 68.07L64.99 57.02z"/>
	</g>
	<g id="Path_23" style="fill-rule:none;clip-rule:nonzero;fill:#dcb6b4;stroke:#000000;stroke-miterlimit:4;">
		<path d="M55.68 36.83L50.98 50.69L37.40 42.6L37.20 34z"/>
	</g>
	<g id="Path_23" style="fill-rule:none;clip-rule:nonzero;fill:#dcb6b4;stroke:#000000;stroke-miterlimit:4;">
		<path d="M31.20 25.04L35.64 32.91L42.67 37.82L49.56 39.58L57.31 24.67z"/>
	</g>
	<g id="Path_13" style="fill-rule:none;clip-rule:nonzero;fill:none;stroke:#000000;stroke-miterlimit:4;">
		<path d="M56.17 36.77L53.15 37.9"/>
	</g>
	<g id="Path_25" style="fill-rule:nonzero;clip-rule:nonzero;fill:#000000;stroke:none;stroke-miterlimit:4;">
		<path d="M56.86 50.25L60.82 48.86L56.86 49.46z"/>
	</g>
	<g id="Path_26" style="fill-rule:nonzero;clip-rule:nonzero;fill:#000000;stroke:none;stroke-miterlimit:4;">
		<path d="M57.38 49.64L64.01 44.67L56.86 48.86z"/>
	</g>
	<g id="Path_45" style="fill-rule:none;clip-rule:nonzero;fill:#dcb6b4;stroke:#000000;stroke-miterlimit:4;">
		<path d="M63.83 39.06L63.41 51.04L56.33 51.25L50.91 35.94z"/>
	</g>
	<g id="Path_67" style="fill-rule:nonzero;clip-rule:nonzero;fill:#000000;stroke:none;stroke-miterlimit:4;">
		<path d="M80.06 52.69L81.13 58.53L78.21 54.53z"/>
	</g>
	<g id="Circle" style="fill-rule:none;clip-rule:nonzero;fill:#dcb6b4;stroke:#000000;stroke-miterlimit:4;">
		<path d="M73.20 21.35L79.60 22.83L86.41 37.4L79.18 39.74L68.75 25.11z"/>
	</g>
	<g id="Path_9" style="fill-rule:none;clip-rule:nonzero;fill:#608c60;stroke:#000000;stroke-miterlimit:4;">
		<path d="M33.86 39L37.05 39L51.90 47.61L52.58 40.28L55.45 48.89L54.28 59L33.86 42.72z"/>
	</g>
	<g id="Path_10" style="fill-rule:none;clip-rule:nonzero;fill:none;stroke:#000000;stroke-miterlimit:4;fill-opacity:100%;">
		<path d="M75.13 21.98L72.40 25.4"/>
	</g>
	<g id="Path_11" style="fill-rule:none;clip-rule:nonzero;fill:none;stroke:#000000;stroke-miterlimit:4;fill-opacity:100%;">
		<path d="M78.08 22.38L75.77 25.91"/>
	</g>
	<g id="Path_54" style="fill-rule:none;clip-rule:nonzero;fill:#60b638;stroke:#000000;stroke-miterlimit:4;fill-opacity:100%;">
		<path d="M21.44 45.46L29.44 45.15L33.44 47.92L53.44 67L53.39 50.99L66.77 51.26L69.44 77.77L65.59 83.15L58.78 84.18L50.82 81.61L43.25 76.43L18.82 53.46z"/>
	</g>
	<g id="Path_18" style="fill-rule:nonzero;clip-rule:nonzero;fill:#000000;stroke:none;stroke-miterlimit:4;fill-opacity:100%;">
		<path d="M57.18 23.33L88.63 26.41L89.38 28.84L88.02 38.99L56.60 27.8z"/>
	</g>
	<g id="Circle" style="fill-rule:none;clip-rule:nonzero;fill:#00fcf8;stroke:#000000;stroke-miterlimit:4;fill-opacity:100%;">
		<path d="M83.77 29.48L85.85 27.21L88.02 28.99L88.47 33.08L87.56 36.56L85.44 37.63L83.58 36.36L82.92 33.06z"/>
	</g>
	<g id="Path_33" style="fill-rule:nonzero;clip-rule:nonzero;fill:#000000;stroke:none;stroke-miterlimit:4;fill-opacity:100%;">
		<path d="M51.76 26.45L82.83 32.4L79.62 44.57L48.83 35.21z"/>
	</g>
	<g id="Circle" style="fill-rule:none;clip-rule:nonzero;fill:#00fcf8;stroke:#000000;stroke-miterlimit:4;fill-opacity:100%;">
		<path d="M75.14 35.05L77.72 33.08L80.29 35.05L80.75 39.14L79.84 42.63L77.72 43.69L75.59 43.08L74.23 39.29z"/>
	</g>
	<g id="Circle" style="fill-rule:nonzero;clip-rule:nonzero;fill:#dcb6b4;stroke:none;stroke-miterlimit:4;fill-opacity:100%;">
		<path d="M56.94 29.32L65.13 30.91L63.20 43.75L55.14 37.02z"/>
	</g>
	<g id="Path_18" style="fill-rule:none;clip-rule:nonzero;fill:none;stroke:#000000;stroke-miterlimit:4;fill-opacity:100%;">
		<path d="M62.79 30.17L60.90 37.93"/>
	</g>
	<g id="Path_19" style="fill-rule:none;clip-rule:nonzero;fill:none;stroke:#000000;stroke-miterlimit:4;fill-opacity:100%;">
		<path d="M59.60 29.8L57.72 37.17"/>
	</g>
	<g id="Path_23" style="fill-rule:none;clip-rule:nonzero;fill:#60b638;stroke:#000000;stroke-miterlimit:4;fill-opacity:100%;">
		<path d="M36.50 3.64L50.80 3.59999999999999L60.87 6.76000000000001L66.81 13.65L65.60 20.8L54.36 26.67L40.99 28L28.70 24.81L21.82 17.74L25.20 9.34999999999999z"/>
	</g>
	<g id="Path_23" style="fill-rule:none;clip-rule:nonzero;fill:#608c60;stroke:#000000;stroke-miterlimit:4;fill-opacity:100%;">
		<path d="M50.82 14.53L56.36 12.07L57.13 9L57.10 17.84L54.14 19.75L47.76 21.25L41.00 21.6L35.40 20.2L30.30 16.72L30.34 9.87L35.20 13.2L43.59 15z"/>
	</g>
	<g id="Path_58" style="fill-rule:nonzero;clip-rule:nonzero;fill:#000000;stroke:none;stroke-miterlimit:4;fill-opacity:100%;">
		<path d="M55.44 70.23L51.44 65.61L54.52 64.38z"/>
	</g>
</g>
</svg>